<mxfile host="app.diagrams.net" agent="Mozilla/5.0 (Windows NT 10.0; Win64; x64) AppleWebKit/537.36 (KHTML, like Gecko) Chrome/129.0.0.0 Safari/537.36 Edg/129.0.0.0" version="24.7.13">
  <diagram name="Page-1" id="t7Jn3TPD9dCErBkYwIVD">
    <mxGraphModel dx="786" dy="421" grid="1" gridSize="10" guides="1" tooltips="1" connect="1" arrows="1" fold="1" page="1" pageScale="1" pageWidth="827" pageHeight="1169" math="0" shadow="0">
      <root>
        <mxCell id="0" />
        <mxCell id="1" parent="0" />
        <mxCell id="tmPHs044Vx8_ZgwO9Ury-6" value="" style="edgeStyle=orthogonalEdgeStyle;rounded=0;orthogonalLoop=1;jettySize=auto;html=1;flowAnimation=1;strokeWidth=9;strokeColor=#007FFF;" edge="1" parent="1" source="tmPHs044Vx8_ZgwO9Ury-1" target="tmPHs044Vx8_ZgwO9Ury-2">
          <mxGeometry relative="1" as="geometry" />
        </mxCell>
        <mxCell id="tmPHs044Vx8_ZgwO9Ury-1" value="" style="shape=image;verticalLabelPosition=bottom;labelBackgroundColor=default;verticalAlign=top;aspect=fixed;imageAspect=0;image=data:image/png,iVBORw0KGgoAAAANSUhEUgAAAKAAAADMCAYAAAD0+agMAAAAAXNSR0IArs4c6QAAAARnQU1BAACxjwv8YQUAAAAJcEhZcwAAFiUAABYlAUlSJPAAABNsSURBVHhe7Z33exNXusfvv3Xvffb+cPdCNtkQNnWTUEyvCS2UhAAB0thAKAE2BAisE2BJAgmElgRsXHGTC+5yb7jbkmVbVv/e9z0jGRnLIMvljOz3fZ7PM9bozGg85+PzzjlzRv4PSEhoDBFQQmuIgBJaQwSU0BoioITWEAEltIYIKKE1REAJrSECSmiNiQkY8AMeD+EWJhPXEDDkhJ9+Dvh9wZM9MyN2AQMBBFg+WzfQ3S5MJm1NCLTUw9PTCR+JOJNjAgJS6+eik9PaCLTU0UmjpTAp+OsrMVSUhZY7V9BTbIHXOUinm873DIzYBeTUMDQANFYDdMLQREthUvBWFMCefAMlBz9A7eUzsFtL4BlwzMh0PHEBm2uBugqDmjJhotB5dBU+QMf175G/bQnydq5C5bmjcNRXzch0PHkC1pYD1XQCq0uFmKHzR+dxqCAT7b8kImfLQmSuexX5u9ag+uKpGZmORUBTMVLArM0LkLrsBWSu/hu1hCtnZDoWAU3FaAHvL/kLUojMlfNmZDoWAU1FZAEZ1RLOwHQsApqKMQRMeA73lz5vSLjGSMc1lI5tnI774zsdi4Cm4ukCMikkYYZKxyspHR+J+3QsApqKZws43BJSOrZ8uBrW88fQXZgVt+lYBDQV0QkYkjBj1Xxkb1mEqu9OoLe8iNJxX9ylYxHQVEQvIBNKxzlbF6PsxCfoq62Mu3QsApqK8QnIqJaQOyY7lsF67ii6C+IrHYuApmL8AjIj0/Fx9JYVxk06FgFNRWwCMvGajkVAUxG7gEw8pmMR0FRMTEAm3tKxCGgqJi4gE0/pWAQ0FZMjIDMyHR9Bl0nTsQhoKiZPQGZEOk4MpmO7DQGvN1iJ+kMENBWTKyATno5Lj38Me1kxvI7+YCXqDxHQVEy+gMxwOt6+DJVnvkRXTjq8fQ4EfFSHmkMENBVTIyAzIh2fO4bewlx4bL3a07EIaCqmTkBGpeMVlI7fo3T81X7YS/WnYxHQVEytgMzjdLwUlacPaU/HIqCpmHoBmcfpeCGqvj2KngJ96VgENBXTIyBjlnQsApqK6ROQMUM6FgFNxfQKyOhOxyKgqZh+AZnH6XgRSo9NbzoWAU2FHgGZyOm4b8rTsQhoKvQJyOhIxyKgqdArIDPd6VgENBX6BWSmMx2LgKbCHAIy05WORUBTYR4BGSMdv4icLZyO901JOhYBTYW5BGRGpePsyU3HIqCpMJ+AzFSmYxHQVJhTQGaq0rEIaCpGCvhgw5tIXjTHYLF+UhLmIm3FPGSRhGUnPkVb+l24erom1BKKgKbCEND9MBvdt39A4Z61yNr0lqnIplY5d2sC8nevRd3l0+irLIbPOUhCBAwvxhkioKkwBPRVFGIw6x6aL5xE/dmDJuSQooUE7E69Da+92/jHRTGECGg2asoQqKJWpdSCwdxUDGQnm5PcFAzmp8NFfyyBwT7DhxhCBDQr6p/WVBr/hcp0WI3/6tRYBbTUGx6IgMK0EfyPTgqufxFQmF6onrm+RUBBDyKgoBURUNCKCChoRQQUtCICCloRAQWtiICCVkRAQSsioKAVEVDQiggoaEUEFLQiAgpaEQEFrYiAglZEQEErIqCgFRFQ0IoIKGhFBBS0IgIKWhEBBa2IgIJWREBBKyKgoBURUNCKCChoRQQUtCICCloRAQWtiICCVkRAQSsioKAVEVDQiggoaEUEFLQiAgpaEQEFrYiAglZEQEErIqCgFRFQ0IoIKGhFBBS0IgIKWhEBBa2IgIJWREBBKyKgoBURUNCKCChoRQQUtCICCloRAQWtiICCVswgIAKAewhoqQfqrUQlHVRQRMG8RBRqvEy1gIEAAj4vvIMD8Aw4IuOww93dAU9VCTxl+QaleYKJ8ZZa4K8oRMBaHEGq8TDVAtLO/LTT/qY69NVWRsRWWYLeolzY03+D/f4NIQ5wpN2GKz8DPmosIosVLVMsoN/twgDJZ008jpLDu1FyaCeKDn6Aoi/eH6bwHztQ+NlWFO59F4UfrRfMzp51KPl8KzqufQenJY0EInlivmafYgG9zkFq4Yph2bsB6avmI235X5Gy9Hncj8SSvwhxQPLiOchY9yoaE4+hPyuJ5KFr9po4EDB15UuRxRPiiuTFc0VAQR8ioKAVEVDQiggoaEUEjIUIvbmI5YRnIgKOF5Yt4bnRiIQxIQKOk5QVLyJt9ctIX/86Mt55Y5jUVfMjlheejgg4DlKWv4icD1ej9PjHqDx9GNazR1FJVJw9DMu+jUEJXxi1nTA2ImA0UHrlOy5pa15B1YV/or+hFt4uG/y9A/D19sPd24P6axeRufEtpCz7q6TjcSACRkOYgDU/fIuhrg74h1wIuL2EB36XE82/XUX21gSkUispAkaPCBgNYQLWXvkX3H02BHzBXywQAHxePLp7HTk7liF1xTwRcByIgNHwDAEDHi9a/hABY0EEjAYRcMoQAaNhsgXk94nkhOdGEXov4nbP4mn7DL4fqUzMnzcJiIDRQBU02QLyiU9a9H+j4PWxCpGcMMY+ab0qoz53zsj3CJ0D6SJgNFDlTFhArnwWgZbpdMKz31+O/M/eQ/HRj1Dy1X615Ne8nt8PLz9qX+Hw+0Ey3v07cnevVbPCi4/swcPDu5G3Z51an7LsBdrva3jw3mLk7Fw1TDYdM6/nMc5nftYUIAJGA1XMhASk16m0fLDhTVj2b0TZ6YOovZqI5qQbaH+QjI6cFLXk17ye3+dyXJ63G1OM4HGlr56PvN3rUE7bNd68jNaU27S/JLRl3kPjrR9RfuoAnbN3UXhgOyrPHUHD9UvDVF/6Brkfrkba6r9NqPWNFREwGoIVHZOAvC2RQetLqVVqS/8DA92d8Hq9xvZPBK/n97kcl+ftePuIYlDqTKOWLW/7UjTduaIe1gr4/cE9PY6+mgo0//6zgn8OD2dHK0q/2oeMd15XKVkENGJmCBgUh+8VV549hM7s+xjq7oDX7aLNAsb2TwSv5/e5HJfn7Xj70L7Cj4mv5yyUcut/Oof+hmo6P3TCI+zXO+DAYFsLHM0NcNGxDweVdba3iIARIv4FVILMVZMWOPV15KZhqKfT2IaCRfN53HD1dpNs7Wrp93hGCMTlO3JTUfD5VnVdOJwilSSU1le9hIozh2CveAjfkDO4lRH8BCE/I+2iffDS53bDQ/hCx03Bx8BiioCjY0YIyBXK116NNy7Dbe8xygfDR6nWaetBZ8EDda3WRUuPrRcB78gT5rJ1o+7n71TnIiSIEnHZ8+rz+A4Mf364uPwzy2sjMfn60mYtgZs+ix/qDw8RcOyIbwGDwxo8xlZ68lP0lOSrYw8Pe20F6q5dQAG1jtxT5Z4ri+qorwqWMIK36ynOQ+mJT9T+DAHnIJU6DSUkTlf+AzrJj+XzU6vKUnHno+Czrcjb+w6KDu1EzeWzGGhppJbRHSwpAj4t4l5ALp++licvnMVQVzv8XkqvwfIsSWva78j/eDP9HvPUWBz/PoWUatsy7qr3uRwHb8fb1/z7tDHdawlV2qI5lNpfUz1YexWd+LDwDvajMy8DxUf3qmEcLptG+y7Yvwm2sofqa01CIQKOHXEvIC9zdiwflSJ5O96e98P74/2GhH3a/ptuX0HmxrfVdC/1MPeGN1UrN9Bcb5QLBl9L1l1NRO6uNYZQVMHcU87fuQq2wjx4+xzBkiLg0yKuBeSTyjOnObW2pt6hkxCeIj2q0qu+P/l48DeYWvk1r+f3VYckFLT9o/u31XhdynIWcK4aUOZWdKirLVjICO49W787jqxtS4YFTKVjsexeh95CiwgYZcS3gJT2WCbLvnfVeF54+Kh36mioQcW3Rx7LF4JeV54/in5q1bgXGx68H94f75crLWv7UnRkp1CL1xUsYQSn64qzX+LBloVhAs6DZc876C2ia1ERMKqYuQK6htBXXYGK0wdHyhek8txTBKQetQj4NETAqFrAfmoBK8doAasST2KorXVECmZRHt2/hdydK9U9Xb4GzNqaQPu+q4QLDxFQBFQnla/V+Gb/o6Sb9D6VpXIc3Kt1kiTVqldLvwOJx+X5M3j/dT/9Cx6bfXj/LAlLy7faHmxeqI6HBeefW+7dUAKFBw88V//7G2S/vwJJC/+sZOWOS96utXINOI6IawFZKq70zA1vofGXy/DbB6npM+7RcqV7qHVrIKEyNy1Q++eK55Yth6R5dO9Xtb+QsPw5bnsvan86T5//sjoOoxf8dzTcvEzpuk6VCwUfWzP1vAs+3aL2a0j1HHI+WGkI6BABo4n4FjBYiSxhxZkv1TUfX/uFwu/3w2YtRe2P59QslixKl9xj5uGTvmo6gWG9Zp/LCTud2PLTXxj7JbjS0ta+Qh2Zw+gtKwiWNMLo5FSj5sdvSboVyKLecv7Hm1B14WsMNstAdLQR/wISXKH5n2xG8x+/wMW3woKtGoenzw57VRkab/5Ards5teTXvD4UPLNlqLdbbc/7CQnCd0R4AJvF4qGY8IFr3obPE999abh+kVL6ebU9303x9lPrFzZbRgQcO+JOwFFPxQUF5Irlyab2proxp2CNFTx5wEYdluIjH40UZPh4XlapWcn9xH3eULCQ4eKHhwg4dsSPgBw8UJx0Y1QKTqZrL+6M8KBxFXU6uisequu/sYQIBb/P5brLH8JKHQreXg1A0/7Cj4nhe8gtyTfVw/Hhrdtw8B8IS0jy8x8Ap/9QiIBjh2kFrL54So3TuXq6VOcgBKdQHhp58sF0Tpd8V4S/0sN66RQ6i3Iw8KiRtrHB5xxSs2J4ipRa0mtez+9zOS7P2/H2aiJC6HgY+gxVeRvfVlPveUiGh3f4j4OnZvG1IC/5Na+3kczO7i66pnw8vigCjh2mFbDs68/RnpWM7sIc9Dy0DGNNPKF6vRG/moNeh9Jx4YFtaPrtKnpLCuBsaYHTboeTrs3Ukl7zen6fy0UjBU844NaRB6nrqHXmCQeDrc1qPJDlYvHqriSi/OsDsJeVROwFlxwTAZ8McwkYhAeXefyNKzt//yY1myUE33s1jinylxOF0jFPLOXeaeEnW1B2eA/KTv0DZWcOGUt6zet5yCRj/euUzqnlC0+7kWBh1ANHryJ7+zIU0LGUHPoQpcf2Gg860f54LuHDL3fBVmOFN7wFpHQ82NKIhwd3GhNe+SGopSIghykFVHCFj0Wk8mFwGuUxPDU4TOXTSTCueJ41rZb0mtdzpYTujETazzD0PqdnfurN+EPYhLxda5BL16I525aqS4LMLQuR/+kWNS1soKN1xIxov8sNR3Wl+mNS5/PJND8NiIC6YLm4wp/kWdKFQ+V5ziHL156ZpO4N87VoxbmjKP5qP10b7kIpXTLwwDRP2wofA+Tw9vWhx5KD7B3LHx9PpM+ZQkRAnXClP0mkcpGgstyS8lfC8WxpR321mpjADxk5GmuMf11WXY6+OiucnW3q3HHKDQ+7tRTVF07R9d8bRidnPJ8/SYiA8QrJwp0Gvp7ke798DziqoI6Hn64DB1ub1K08nrKvrjU1tH6MCBivBAXk6z7uNfPDS6qFI8GGCUXwNb/PaXioo01NbiigDkpMqX8SEQHjFr4lN5d65QvUOCBPz+/mMUZ+9rezEz67A/5+J7z9/WrMkq8B+XYcf5Emz0XkKfvc8dEpHyMCxjMkDp8HnlXD94rLv/lCjfk137qKtnt30J5yT03l59au9sp5VJw5qIZpMqnXzNtH9d0zU4wIGO+wQCQSp2M1vEPr+B4xP7TEYvIQjzpXVI7L8BxBHQPOYyECzgRIJjVgHZSK5xZyx4LvS/PgN0sZKqPGIp81uD2NiIAzERYxEpHKakYEFLQiAgpaEQEFrYiAglZmroCRLsIF06Ge8IsXAfnbAhy1VhR98QFSVr+C397+8yjuLpyjhh/yeM7dR+tRxF9PJpgWrqPSA9vQcf17DFnSSSCSh0WKKNizmGIB+dlaZ9sj9fUV9zcswM/z/xtX5/3nCG699j/IWP8aGi99ja47P6Hn958Fk2NL+hWu/HT4ywsiSDUeplrAQEA952Cvs6LqSiLS31+F62/87ygBsza+hd571+AuzoG71GJQIpgVD9WPv6IQAWtxBKnGw1QLSMHPMfCsXltNBWqvXUT67o24lTBvhIDZmxfAkfYbAnxQ9VbjgATzMqG0G840CBgebocdDUm3kbHvPfzy8p9w9aX/Gm4B7UnX4aO/KnVAk/LLCeZnmgX0e70Y7OrAo8xkFJ38HDcXPC8CzmqmWcBQ8Hy3DksmLEf2I31LAnK3L4U9+VcRcNahSUAO9cWPtVZUXzqNos+2wpF6R13YioCzCY0C8nRz/oZ4R10VeiwZ8JQVGJ0QEXAWoVHAUPAzD157DwINVcbBiICzCBMIqB6+4e/i4wPgAxEBZxGmENBPHzwoAs5KzCAgfyB/sAg4CxEBBa2IgIJWREBBK2YUkIl5gqMQV3A9h+pcu4CN1UB9JdBES6axSpjphOq6wapRQB6GcTmB1kagpQ5oo6Uwu3hUT8smwwP2IYaYgID8bxM8gK0b6G4XZiv8bWHsAfkQS8QuIAdbz/+8xe0SZivqn/fE1vpxTExACYkJhggooTVEQAmtIQJKaA0RUEJriIASWkMElNAaIqCE1hABJbSGCCihNURACa0hAkpoDOD/Ac39+QBoBDQFAAAAAElFTkSuQmCC;" vertex="1" parent="1">
          <mxGeometry x="10" y="140" width="109.8" height="140" as="geometry" />
        </mxCell>
        <mxCell id="tmPHs044Vx8_ZgwO9Ury-2" value="" style="shape=image;verticalLabelPosition=bottom;labelBackgroundColor=default;verticalAlign=top;aspect=fixed;imageAspect=0;image=data:image/png,iVBORw0KGgoAAAANSUhEUgAAAJEAAAChCAYAAADHol2OAAAAAXNSR0IArs4c6QAAAARnQU1BAACxjwv8YQUAAAAJcEhZcwAAFiUAABYlAUlSJPAAAA/dSURBVHhe7Z15VJTXGYfbJm1PkuZ00SSmjeKKu3FDQJRNEiSN0aREG5sYNRq7JU2TJm2TFuuWRpNqMImCgEpwQQTEYRNkEZBNBUREBUQZhh0GZmAYGLZf750MKaZjRL9Zvhne3znPnzlH7jy5933vd7/7fQcUisCQRBTBIYkogkMSUQSHJKIIDklEERySiCI4JBFFcEgiiuCQRBTBIYkogkMSUQSHJKIIDklEERySiCI4JBFFcEgiiuCQRBTBIYkogmM2ifr6+tDd2wdlVy9aNOKG/xs7e3rRy/7NlP+P2STq6WU/Tmc3LjVrcK6xU9RclHeiXt2Jjp4e3b+eMjBmk6i9uwdFzR1451wTVqbVi5pX0uuxIaseb+Q04p3zTdhU0IyPi1rgf02J2Mp2XGjqRKWqGxo2sw7FmE0iZVcP0ura4RhbhcdCKyyGXxyrwNQTlZgXXQXPhBpsyGzA5ovNCCptRUqtGvlMqOvKLrYMdqOLzbZDISTRPTCC8TiT6eeMJ8KkGHVcigkRlVgQW42X2cz1UaEc55uUkGs6dX+tdYckMhBcqjHhUsyIksE9vhqvna3B9ktyRFWo2LKtQXOn9c5KJJER0Ap1vAIL2d+2JqMeO4oUOFWlhrStW9vl8c7UmkISGQm+5PUvdzZsufNOrUNgiRI1Ko22M7WmkEQmYipb5pYl1WInK8KTq9qtqpsjiUzIaDYjPR1XjffPNSFK2o7y1i6oui1/ViKJTEj/EmcfXYV1GQ04fL0Vpcou3YhYbkgiM8C7uLkSGbxTavHFFQWutmjQ0WO5SxtJZCb6O7iXztQhqFSJEoXlLm0kkRnhy9uUE5V4PrkWwWWWu7SRRGZmZJgUs07K8PrZBoTeaLPIro0kEgGjmEi82P5LbhPiZe1o6OhBtwVtSJJEIoHXSG5sLHzONeKiXI1WNj6WEpJIRNiyrs0roUa7s31NodGNlPhDEomMiZGV+G1mA6Ir29kY9cISOn+SSGTwQtuO1Uf8jBI/9am2AItIIpHRf6RkdUYDIipUaNaIf++IJBIpLvHV2JgvZ7VRl+h3s0kikcJ3s58+VYVIqQpV7eLu1EgikcIf1M6RyPDvSy3IaxL3MVuSSMTYsk5t3dkGJFS1Q8wLGkkkYsbw80enanCkvBW9feItsEkiEcOXtElsNtrC2n2piJ+pkUQWwIasRmTUdaCtS5yzEUlkASxPrWNLWhvkIn3tiCSyAFziqrEpvxk1Im31SSIL4MkoGV7PbEBFW7du9MQVksgC4MU1v1jiRqs4Tz6SRBbA2HApnk+uQalSgz4R7hiRRBbAyLAKPJ1QjcLmDlHeNEISWQjz2Tjx8eLjJraQRBbCvJgqSCpVqFOTRF+HJLo7+EG1YzdVkKnE16GRRBYCSaQnJNHdYR8jQ4xMgfoO8R3gJ4ksBMdYGVJqFVBoSKKvQxLdHU5snHIbVFB303L2dUiiwcM3G5cm1+KKohM9InwzliSyAPiVx6+m1+MmPTu7NSTR4Jl9UoY/ZDVqD6aJMSSRBeAcVw2fPDmq20miW0ISDZ7nkmqx75oSjR10nuiWkESDh7/xkVLDbwqhk423hCS6M/w7IpMjK7GxQI4SpXjvdTSfRJ0aZNyohdveeIzZehyjrRT+t439MBwTtkdhys4YzPA9hel7kjB1XzpmBOYyzmPqgQLYHC3Xvt0xUCJ+ZbFbfDUCSpRo0fSIsr3nMZtErW1tyMnNxa9eXA47B0fMtXewSvjf5rBgITwWe+GFF1dg1Zq1+M2bb2H5B5uwarM/1mw9gBUfh2HWkWLYhN0qkW1EJdaw1p7fnibmmE+i1lbk5OTA29sbdnZ2Vs08e3s4OTnB1dUVHh4eWOTlBbclS+Gx7Nd4atlKuHuvgv3qt+Dy1hY8s8kPi/9zAvMPJsA1LgvbC+voNerbZShJdCfmzZsHBwcHeC5ejOUrX4H3hvewZMt2eB8Oxra8y0ivl6O9p1u0nw8liUQEl+kr7LFk2TKs+et7eF4Shs9LLkOqUkEj0g/LkEQiZdHqV+Hl+wnGh/hj7slQvHImAX7FhchvrNc+hBXTrEQSiQx7R0cs9PSE07t/xoz9e/BA4Kf4LuPHwXvgEROOLfk5SK6WobxVgdYucRwLIYlExnxWfC/94xuw27ENPw3ajfsCPsV3AnZp+R6TySY0CEuTohFYehlXFc260TRvSCIR4ezsDE/vX+GXH27B5L278AM+C+kE6ufBA59j5NFAuMWFw6cgG6l1MrPPSCSRiHBbuhSL33kLdnt2YUTQZ7fIMxA+I/0o+AvMkxzF2+fTkdFQg8bODt3Imj4kkYhw/v0GOO3fi4cDff9vBtIHr5VGHNmHNy9kII2JZK6QRCLAwcUZHuvWYua2jXgkcDfuH1AHfRs/3L8bj4UGwjk1Dv+6chGZjXVo6zb9+/okkZlxXOQO55dXwnn7Ftjs3alXltsx7JA/bKMOwzYxCr/MTsHWq4XIb2mCwsQ1EklkZhatXgXPXTsw+uAePHTwc72y3I4JEV9iUWosJiZJMIF1bM4Zp7GrtAiFTCRThiQyE44uLvBYvxYObAkbz4roh/d/hvuDfPXK8k34Mjb2+AFMizuOaUygsadPYsxpCaYzoV48lw6/GyUoaW1BR49pDrGRRCaEP9JwdHSEk9diLFj7Khbu2ArbgN3aTot3XPqE+SY/YAINO+SH2bGhmJ54AqOZQP2MY0LNPBOPtfnZOCS9ru3Y+kyws00SmRD+kNXd3R1Pv/0nuBz0xyhW09ztEvazkL1sGQvGtPhjmJgYeYtE/Tx5Jg6v5GWhVKlAjwmet5FEJoDPQG5ubvBc7o05f38H43b9G4+yJexBNqsMdgnrZ2RYEOwTwjGJCTT2dJReiSYkR8MtMwkHbpairFWhG3HjhSQyInzpWujqCufnlmDRa6vh+sF7sPHbiYeCdusV5Nvgsg077IdJkiOwS5ZgvB55BvIka/t/V5CN2FoZ2o38wJYkMiKubPZZsmIFlm3ygVPAZxgVGqitafRJcid43TSfzUBzkvVL8034bOSQkYCPy66gQtVm1GMkJJGBseenGN3d8NT617Dg/Xcx/aN/weazHRge4IsHWf0z2AJ6II8c9seUk4cxjRXStkn6pfkmY1mRPSklButZkR1VVYEWI+4dkUQC0R59ZTOOy5IlWMBqnlkvLceUdasx96PNmOi3C8MOsNb9HsTh3Mf+O34EZFxkCGYlRGLcbWqgb8PtbCL+UZyHivY2ox30J4kEoG3Z58+H50sr8YKPD7z8PseE/V+164N59nUnHmACPnniMKbGhcMm4dZ2/m5YlJmMC81NRts3MptEKpUK+Zcv47Utm7D4T3+E55vix+Pdt+H2j79psdv4d9hufh+P//NdPL7NB0/4bsfj+3zxI/7w9B5nnoEMC/GDbUQIJjGBxjOBbBLvfhbqZ0FGIkKl5ZCqWnWjb9iYTaI2tRq55dfhfTAA83x3WARz/D7FzP17tIz/0g/DD/nh+6xQNoQ0nPtYB8brpuGsBhrPlrAZ8REYJ0CefuzS4vHh1YvIa27Qjb5hYzaJFJpOJFZJYRt2UO+ADkW4QCOPBcH5dOSgu7DBMCM1FuvyM5FQX6UbfcPGbBK1kERf8/39vvh5aIC2A5vD2vgZSVGD7sIGw0TW7ntkJiHgZimaOw1/URZJZGb47DPiaABsJUcwKzESc1OjMd6AAnH4M7XpKbHaM0fXFM0GL7BJIjNjE7YfjgkRgovnwbAhPxtJNZVQGnjPiCQyAz8J2YMx4QcwWcLa9/jjmMzkGWNkgTirLpxFhKwczWzsDRmSyATw7o2/pTH8kD8eZUvX6MgvMTUuDHOTozDVgAX0neBnjYIqytBIElke32Ot+8jQIDjFhcOd1TyzkiUYJWDz8F55JjcNn7Dius7Ab4aQREaCzz585uEbhhOij2FifAQmM3GmMoF452Xs+kcfz+Sk4uOyYtR2qnW/gmFCEgmAi8KfyvPHEw8Hf6E9cfjIkX0Yzpasn4QGYvSJQ5gZH4mZyTGYxNpsfT+sKeFt/uZrhajpIIlEAz/j89OQvXiCCTM5IhjzWZHsmnQCC1MlmMbEGc9aa30/prlwykjE28X5kKkNe2mWWSXKqKvB0pRYzI45JmpmMabHHMWkmFCMiwnDE5JQjDh5FI+dPIJfRIfCJjYM41i9MzmRLVenozCFLVdcoDF6fkhzMjstHusu5qJCrdL9CoaJ2SRSaLqQ2diAX2enYmFKjKhxYtinSDAnNUb7CIHvAPMNPH0/lJiZnXbKuiTit8emN8rhlpms9w8mDI/VLWckkemxusKaJDI9z2anYGdpEeqspcUniUzP8zmp2Hu9GA3WstlIEpmeFefSEHyzBE0akoi4R1bnZeJk1U2Dv/lBEg0h3ig8h6zGWoPfYUQSDQH6L3rYWlKM8jYVOg38IiNJNATgz+08s5IRJC2Hgo271RyPJYlMB99lX2+NB/VJItMxhy1lG4vzkSuv142+YUMSDQHmpyfiwM0yXG9T6kbfsCGJhgB8jDPYWPMxN0ZIIiuHX+jwweV8lKva0NVrZRc6kETGpf9qmbV5WThuhDc8BoYkslK+uuQqEVuuXUJRixzqHuN9U58kslL6r9uL1r2saMyPEJNEVgg/muty9jQCtfdZW/HFnySR8ZiWEosV5zNwkS1jprgQnSSyIv53GXoWvpSWoa5DbZJv6ZNEVsLAzzL4s2WsdCh8loEkMixD8gMxJJFh8cpKxrarhSgYSp+qIomEw5ewyckxcGedmM+VApypr0HrUPpoHkkkHL6E8Ztht14tQHpDDZQa4+4H3S4kkQXSf33eclZEf8JqoLzmRu1nqbp7e2F6hUgii4NvJPLzQa/mZWFv+TXttcLtRnykMZiQRBYCvxyCf2GRn1J8ITcNkmopqg38Tv29hiSyAPgZaYe0U1jJlq9t1y5BUiNDZbsKahPtA90pJJFI4Z3XRNZ5ObLOy/t8Bt4rykNIRRnOyRu+qn/6jP9FxcGGJBIRfMnSLlus7uHX1/CjHH+4nI9g2Q2jH+cQEpJIRMxhS9azOWe0Rzi2lxTheJUUFxTNkKrb2XiZp30fTMwq0dkmObyyz2AKa1eHAtNYUcxvK3NkM4wr+5+Hvwv2XHaqtlVfX5ALn6uX4M+WLH4GqJDNPGJbtm4Xs0qUI2/By3nZ2tloKPBUdgqWXziL3xVdwD/ZTONbVoyQmyVIZJ1WlUplsgemho7ZJOru7YNc04Xz7P+4dFYsDgUyGLktTShQtqC4TYnrKiXrstpQ36HW1jtiXa7uFLNJRLGekEQUwSGJKIJDElEEhySiCA5JRBEckogiOCQRRXBIIorgkEQUwSGJKIJDElEEhySiCA5JRBEckogiOCQRRXBIIorgkEQUwSGJKIJDElEEhySiCA5JRBEY4L/kEZaqWRt6IQAAAABJRU5ErkJggg==;" vertex="1" parent="1">
          <mxGeometry x="220" y="140" width="126.09" height="140" as="geometry" />
        </mxCell>
        <mxCell id="tmPHs044Vx8_ZgwO9Ury-3" value="" style="shape=image;verticalLabelPosition=bottom;labelBackgroundColor=default;verticalAlign=top;aspect=fixed;imageAspect=0;image=data:image/png,iVBORw0KGgoAAAANSUhEUgAAAMwAAADZCAYAAABsOd/aAAAAAXNSR0IArs4c6QAAAARnQU1BAACxjwv8YQUAAAAJcEhZcwAAFiUAABYlAUlSJPAAACw6SURBVHhe7V0HfFRV+l1dFXtDeiCELoqKFFmwYl91UZTVtf3Xgt1dC7prY1ddldVVsayA1BAgCSUJJZBeSINQU0kvk96T6TXn/31vMpiFQTLJTObNzD0/z28Qknnv3XvP+853628gICDQYwjBCAg4ACEYAQEHIAQjIOAAhGAEBByAEIyAgAMQghEQcABCMAICDkAIxt3o7CSaiUbAokenRB39lYaoRKepFZ2G5tOTf45/nn+Pf5++h79P+l7p++k6An2GEIxbQY3YYgLMasDUQu27jlgLi64aFk0pLKosWNrTYGpKgLEx7pTkf+efk36ef49/n7+Hvo+/V/p+vg5fT6BPEIJxGThyWKxvfGMTOnVlsKiPwdx+BOaWWBgbwmCoDoKhchn0pZ9BW/gWNHkLocl9hvhnaHKegib7MaiPPgz14QehOjzvlOR/55/jn5d+j39f+p7noD32OnQlH0vX4evxdc3NUTC37oVFeUS6L+n+6D75foWofh1CMM4CNza2U8ZWWLQKmFX5JI7D9ILfS410O4zVK6Gv+Ba64k+oEb9CjftxqA49AFXmXCjTpqI92R/tCZehLf5iJ/JStCcORUfqFOk6fD2+rjb/BegK34a+7HPpvvj++D75fvm++f75OTrNWnoujkwCNgjBOAucN5ANMrWkkjCWU6N8A5qs/6O3/zwoM2+hRjuZRDGSGvAVJIzLidSYSSDtiYOJw4jDuz6dTf7eoUS6Dl/v+HUHoj3JT7ovvj++T75fvm++f1NzCtm7ctKLsusBBRhCMI5CiiRGakgdZLEKqWHFwVC1Gjq2VQVvQJ31FL3N70BH2jXoSJmIjr0BUsOUGm7CECI11ONk8dDfHW/YriJ9v3Rtvl736/O16d9ZOHSf0v3SffP983No8tnOfSo9Hz+nRZ2PTkMT5USGLvvmexCC6Qk6WSBKaiz1kkjMrRlkYyLoTbxUyhHUB+8hW3UdOthWJY6QGqY9a3RyQ5YDh0r31/1+JWHRc/Dz8HPx8/Fz6su/grEuhJ4/TSoHLg8pAnFPnI9ACKYH6DS2UIKcBVP9NuiL/wH1oXn0Nh5LjWoQkRsX2yq2PPz/3e1Qd9prrHKhvfslSs/T9WzScw6iSDRGen4uBy4PLhcuH1+BEMxJ4K5eM6Uk9TC1HYShbht0Zf+GJu8F8vn3QZkxXWo0VoF0t1VMuUaR3pKfh61cNztHz83Pz+XA5cHlIvXCVa+DqXW/VG5cflI5eiGEYCRwF7CJ/muDRVsOc/sBGGpCoCv6GOqjj0O5b5Y1YT/eiyVni+Vq/mLhpM4DKhcl5z0H74WucLFUblx+XI7c0wYL5TteJB4hGAaPhJspiW/fD0PlDySSBVCmT6VkmPMR7lniXi22JywSm2Wx15h8hbYyoPLgcrH1vlF5cblx+XE5mttSSS+N0svIW+C7giGRHO/patoNXenH0GQ/CVXmzehInUSVzxHFZkVsYrHXeHydNtF0WVMqNy4/Lkce89EVfwhjfSgsqmypvKWXkwfDJwXDPTs8hcTUkgCD4ido816kN+M1VPlDyGpcYq18KSex10AEf53Wl4xUjvRnZdpV0gwEffmXMDZFU7mXdAnHM22azwmm02Ih93XUar2OPIIOqtDjybskEmG5+k5bGdoi9GXSOI/q4B0wVCyFpeMI5TaeObfN+wVDb7JOs5mS0HqYWtOhr/gBmtyF3ayXddzE2tMlhOJcUnnabC2JRxJN5o1U/s9TPXwv1Yen9ap5t2AsOlj0DdA15UJVtg1tRz9Cc8pctCQECOvV77QKRyr35FFQ7r8Z2sIPYKwLo/ymAJ3GNqov+Q+AerVgOvUKGOojUZu+CKURt6NwwziUhE5AbeRoqkCbbbBXuYKuoa3M+SU1GB0U3VUH7oGu+F8wt+/3iAFQ7xNMpwUWg4qiylG05v6E6vgnUbJtDgo2XoVjgeNQEDQRZVvGoWbXaLTGkx2zW7GCrqVNNGzTxkK573fQ5DxDeeW3MLcmkXDapXqUI7xHMFzAZi2Mqkqoq5PRdPgrlEc+TCKZgPy1oyWxHFt/JX1eiYINk1CyeTzqdvmjKXokWuJGoC3BXsUKupxdnQI8AKo6eBt0RYtgaoqhnLNCqk+5Ccd7BGMxSIXcVrgWFdGPoXDTFBLHWOSvG0+fE61i6c4gEk7QJJRTtGHhiGjjTtrGci4n4fhBfegBGBQ/W0UjzRSQDzxeMJ2dnRRVFFApotF06BNURj+CwpDrSBQTSCinEEs3Fm2ciPLNVtG0xHZNwxd0A7tEI81V4y5oym2K3oepcVeXcOTRk+bBgqHCs+ipMCuhLNuK2pQ3UBp2E9mtiRRVyIKt/3WhdGchWTRbpBH2zN20zlXj/EaZfi20eS9JSwo6teVk0fTWencjPFcw5G079fUw1qxGffIfKZKMIVKeIkWUSSeJ4lfJeQ192iKNsGfupq1TgCJO0jBojs6X6rmTN/Vwc07jeYLpmgOmqUtF05EvURM3H6VbrqeoEkANn2yYo2JhkmCYRRSdhD2TC7v1pKVOoryGLFrJpzA1x1tXfbppQqdnCYYHInXV0NbGoyFzMUrCb6MGP57EMgb5vRWLjV2iKezWESDsmUwoDTAPIos2HdoC7kWLklZ7umOg06MEwwOR+tpwVMUuQFHINTi2zr/3UeVXWBAk7Jn8aJ0Y25E6EeqsJ2BqTXbLQKdHCIZ3cTSriqAs/hk1iY+iOPRaaticr/DYinPFYqPoPZMbyaJJvWhs0a6EJvspGKrWSu2i06yjRtI/nQGyF4zFqIShLR/KwlWoiX8MhRspV5EiS9dApAspes9kyG4DneojC6CvXAGzMsc6O6AfIHvB6Jpz0Jz1A0q23UoiGYv8tSO7bJj9Ru5Uit4zmbJrzIZXeGbcAEP5f2DuOEJOxPU9aLIVjMWkleaDNR35FuU756FgwxRK7l1rw05FYc/kSBbNYGkrKNWB26Ev/QLm9oPoNKldas9kKRi2YbqWXDQd/R7lkY+QSCZae8FOM2rvSgp7JkfykgHOa4ZCffBu6MuWSIsDXWnPZCmY4zYs7HZqrJOt88H6OaqcRGHPZEruDLCua+INOAzlX7nUnslKMBaT5gQbdo3bI8v/kERTHDwBivAxFGWENZMPrTlNB894drE9k41g+LgFY0cBWrK/Q8Vunpbvfht2EjnKkDUr5aUBu9maCdHIh2zPeIfOIdLWtvoyijTKfKtonAjZCMaiLoWmPAiVu29H4aZJ8rBhpyAvCygOHY/aSN5L2V7lCbqHNns2HMp9c2BQBMKsKnGqPXO/YCwGdOoqoCxeieq4+SgK5kY5Vl6RxQ450lRuG4vGqJFoSxD5jHzY1XvGe0AffgiGqpXSTOdOnunsBHvmXsF0mqRdQzSKUNQlP92vg5J9JtmzEspnqsIDpFWbohNATuyatJk8CprsJ2Cs20jtrIoiTd8Xo7lVMLyhnr5pP6piH6PIclX/Dko6iTzDWRINRRr7lSfoHlqn0nTsHQ3VoXuts5yNzV0tr/dwk2AoNFrM0NSloX7/hyjeMpMan3sGJftKKZ+hSFO7k3eisVdxgu4j2TM+oiN1ArTH3iDRJErtTmp/vYR7BMNnQWrL0JKz9PgUfY+wYb/CCspnmmJEPiM7Hl8aMA368q8pX66W8ubewi2C4VN7pZWSSQ93m6JvvyF6BCmfKdw0EeVhY8XUGVmSlwZcDE3WozA1bCe9tFIj7F2U6XfB8IYVyvII1CY+htItU6XFX55mw+zxF2sm5pvJitLUmcHSGTb6kk/AR79Lp0P3Ev0nmK59w9TVsahNfYveyNeQWAL6vlJSRrSt1qzfPerkihPsZ3LSbz1ukJc4a/Jelo41IcVQY+z9uEz/CaZr37CWrC9RspWT/K6RfDsNz6MZdCWqtwecUHmC/U+2YReife9oqI88DFPrXkoFyIr1cdeZ/hEMRRezpgGtx1ZBEf0o2Rcexe/F7i6eQMpnSkPHi61o3cluNkx77K9SZHHWHgD9IhiLvh2augwo4p5BUcg0smKO7RvmUTw+32wcGqNGCdH0G8mC8YAl2zA+dzNjepdYovpsw7qjXwTD0/Wbji5Fceh0alBjqWF5YWQ5gbzoTAxo9idZLJejLe4C6RBfPkrDosqivFlJLbDvU2JscJ1gOjvJiRmlPaTai9ajMuoRevNeRXkL2zH7jcybWEAvBTGg2R/sSu6l+WPjoMl6DIbK/8Lcfgh8KjbvY+dMuFQwbMW0dYmoS3sDRcFXU0MiGybzSZVOI1kz/lSE8doZsULT+bROspQiSxJbsBnQZD8NY20wObAicmCu2YvZhYKxwNhRgdqM91Cy7SaPnCfWZ5JoykLFCk3ns2saf/zF9HkZOtKvg674PVja08EnmXVKYnENXCYYi64O2qpIlO+6X7JinjhPzBnkXKZiyzgxmOkscg8YH4uR5AdV5mxo85+HoXoVzB18glkzNTzXbiHrGsGQHdM3ZqDl0EcoDrkO+es40bffoHyBxZsmomGP6DHrHXkCpY3D0ZEyjpL66VAfmQ996ccwNUdSnlxLba5/zpFxvmA42Tea0Jr7s3cPUDrAQrEEoJfssl7Hj4UfBvXhByip/xrmthR06lko/Xt8udMFwxtZaBsOoTb1b2TFJlODYRvme1bsOHlchnvMNokes9OTE/lB1vNh2HaRQDpSJkJ1cC60eQuhr/gGxqZI63wwYxM1Nj4vpn/hXMGQ2k3qKrTk/ISKyPnWiZUcXQJJMD7OfKLUYxbLPWY8yNbdavgiedyE85FuTCLLtTcAyrSrpINiVYfugybvRRLKVzA17aK8uLJPEyedAacKxrqCch8UMX9E4abJyF/jJ+UvvGOlrzNv7QSUhoxF3S7KZeK4gbDN8GVaBxnb4s4/znY+qu/AHdAXLYJBsRzGxhhp3RRl9F3WyzV7jTkCpwrG2FGK9qIgVOy6HUUhE1C4cQwJZxxxvODG8SgJHSftadaa4C+tN/c58hHj6TOgypwL9aH7oclaQFbrRWgLP6Qo8i0MNWthatxO+jgAi6aYHFc9iUVDYnFdN7GjcKpgDB1l6CgNQ33GItTsXShoh/VpC6HMWghNrg8y7xXoihdDX/Y19IoV0uYUpuYYEkg2iaPOOjLvxHlfroBzcxiLiR5aB4tRS9QInoomDZWTL1ILPutHWiLcabTaLI4e0rmV3NNlo3zh5KSfHpYfXvoUFLRDD4dzBSMg4OUQghEQcABCMAICDkAIRkDAAQjBCAg4ACEYAQEHIAQjIOAAhGAEBByAEIyAgAMQghEQcABCMAICDkAIRkDAAfRKMC0tLSgsLEROTg6ys7ORk50j6CCzs7KRlZ2LrIJyZFW14GiT3qOY1aJHXpsBJR1GKNQmNOrMUJssMFossHjBJMtToVeCSUtLw+eff45FixbhzTfexFtvviXoIN/461/xlzffxV8+W4HXNqbhlaQGj+Jf0xrx/oFmLM1tx8YSJeJqNChR6tGqN8JoMqPTS0XjkGDMZjOUSiVWr16Nu+++G7NuuAEzp0/HrJkzBR3kjGnTMX3mLMz+/UOY9sEyTA4uxJXbKjApTOERnByhwLU7qnBDZDVu3FOD26NrMS++Di+mN2JJVisiKtTIpEhUSdFHZ7agU+brXHoKhwSj1+tRWlqKxR8txtgxYzFi6DAMHzIUfsOGCTpILrfhw4Zj9PhxGPzUOzj/xwwMWF+EczaWE8s8imcFleHM9aUSB4VUYNrOKjyR3IAPDrVgZaESKXVaVKoM0JhNHm/XHBIMR5fk5GS8/NLL8PcbhTGj/DHWf7RgbzlqFMYOH4JhD/wZFy3ZhQGBhThnU4XdRukpHNDFs9aX4RIS/6RtCjxJkWd9YQtFGzUMlON4MhwSTHNzMwIDA/Hw/IcxjN6QASOpwu01BMGekQUzbAiG37EAl7y/HgPW5uFsDxeMjWdtKMO59HlpcDlGb67ErXuq8EpGPQIp38lr1ZO9J5vmgcGmx4LhJK6mthZffLEEc2+7DUOuGITRQjB9Y5dg/Obcg4Gvfo1zV2V5jWBsPJuE81uyaufT56gtlfgDRZsfctuQ3aRFm94Mk8WzVNNjwZgplJaVV+Cdd97BDZS0CsE4gV2C8Z86G0MeX4Tzlh/0OsH8D0k0bNVmbq/C4v1NONKsRYdRPlso9QQ9FoxWq5XGXF544QVMvfY6DBs8RFiyvvK4YH6HIX96G+cty6QcxvOSfkfIVu0KsmnTSTRvk2iiqtVoJ9GYPcSf9Vgwra2tUsL/yCOPYPKkK+E3bLhI+vtKLr8RwzH66qkY9odnccHSZJwTVGy3oXkTuVftAhLOlIgqvHOgGUl1GrTqTR4hmh4LpqqqClu3bsXNN9+M0VTZ1l4yO41A0GGOCQjAqBtuxUWfbafEP99uI/M2cm5zZmAprgxT4NX0RuS2aqAzy9+e9VgwRUVFWLFiBa699lqMENHFuRw5EqOum4WLPg3HgDV5dhuYN5Lt2aVkQa+jSPPxwSbso0gj996zHgvm6NGj+OKLLzBh/HgMHTTYfsUL9o5ky/yvvh6XfLgR567M8vo8pjvZnl20sRyzd1Th2+xWlHcYoCfRyBU9FgzPH3v33Xcl+yAE42RyHjP5Glz+xvc4/7/pODu4khqT74hG6nome3ZfbB02lSjRpDPJdipNjwTD0xmiY6Kx8PnnJcHwtA67FS/YO7JgJk7GoGf/gQv+E+uTgjmDBDMxrBIvptXjYLMKSpOxq/XJC6cVDCvdbDEjLDwcCxYswLgxYzFy+Aj7FS/YO7Jgxk/C4CfexYVLIn0zwqwvxSX055k7FVhT3IxipU6WUeb0gqHoYjQasXHjRtxzz72YMG4CRo8UCb9T6eOCsfG3lM/wGM3/7W3Anio1ORv55TKnFYzFYoFWp8PyFSswa9YsTBg7TnQnO5skmIAx4zD890/jksXBPisYjjQXbirHNRFV+C6/DW0G+Y3NnFYwvAamQ6nEV1/9B5MmTMS40QH2K12w9yTBjPH3x6g5d+Kyd5b7rGCYtgmbr+5rxOEWnbSKU044rWBMJhMaGxvx0YcfYcigwWI6jCvIgvEbhtFXX4XLX/u3TwvGxjtja7GioAP1Wnn1mJ1WMJy/1NbW4v333hcTLl3FLsEEkGAGvvqFT43DnEhbBwCv6PzLviaUdeiltEAuOK1gDAYDKisr8bd3/yYE4yp2F8wrn9ttSL5CWxfzsNAKzI+vxZFmNXTkcuSC0wqGlyUXFxdj0duLhGBcRSGY47QJhnvL7oquQlxtK1oM+q7W6H6cVjAajQaHDx/Ga6++JgTjKnYTzBUvfIxzeT7ZhhK7DcoXyHPMLthUhmt3KBBU0o4yFdkymfSWnVYwKpUK6enpePGFFzD4iiuEYFzB7oJ5fjHO/fkoBvjANP9fI0ca/22VWJLdhiMtLBjeecb96JFg9qak4Pnnn8cVAwditN9I+5Uu2HsKwZzE3waVYnBIBV6nxD+pTut5gnnuueeEYFxFIZiTyD1lVwRX4LnURsRUa4RgBLtRCOYksmAGUuL/dHIDdndNkxGCEbRSCOYkCsEInppCMCdRCEbw1BSCOYlCMIKnphDMSRSCETw1hWBOIguGNzZ/Kb0RcbUe1kuWmpqKhQsXYtBAHrgUgnE6hWBOIm+OMXxzBd4/1IKMRg8ah1Gr1cjIyMBLL74opsa4ikIwdjk2XIH/HmvHsTYPGunnLWJzc3OlE7OEYFzE7oJ56V/WYy82lNptRN5O2/T+SzaVYXakAuGVbajR6EkscpBLDwTDs5XLysrw7jvvCMG4it0EI2YrW2crDwkpx/2xNUhvVEJplM8OMqcVDK+Hqa6uxnt//7sQjKsoBHOcNsH4Uf7yp6R6FCsNZMfkEV0YpxUMr7isr6/Hhx98IATjKnYXzKtLcHawFx95cRraBDNjZzU+OdqKKo3RswRjMpulnfs//eRTjBrhJ/ZUdgVZMCP94D/tBlz+xlKfX9M/IKgMCxLrsUOhRqvBLJv8hXFawfB6arVGg6XffospV07G+IAx9itdsPdkwYwOgN/ch3Dpe2t9WjDnEXmW8keHm1GvM8IosxPKTisY3siPE/9VK1dizuzZGD9mHAJElHEuSTAB4yZg6PyXcdGnYT4rGB57uTy4XDq+PLRcCS25G7mdutwjwfBWS8HBwbjv97+XtoodNUIMXjqVJBhf3/lSWpZMn1dFKPBVThuOSqss5SUWxukFQ+RBo507d+KJxx/HaH9/sRm5s+njguneM8a5S3qjRrZnX55WMAxOuhITE/H6a68hICBAOt/SbsUL9o4smElXY+BLS6Rj+3xVMLMja/BldhvKVAbZnuffI8EwMjMz8Y/FizFu7FhxPoyzSYLxv+o6XPbuSpy3/AAJxne6lVks59Pn6K2V0sZ9e+usJyvLced+Ro8Fw9NjuKds4sSJQjDOJgtmynRc9EmYTx3Zx5TrNP5ToceC4ekx69evx8yZMzHSbyT4yIsx9ipfsBf0x6hpc3DRvyJ8RjAcWVgsIzZX4v7YWmwt70AlWTG5RhYbeiwYHu3fvXs37r3nXowfOw4jh4tBzL6Tym/kSARMuBJ+cx/EhV9GYUBggd0G5k1ksZxL5G2UHoirww/5bahQ6WWbt3RHjwXD62IOHDiAp59+GtdcPQUjhgwVO/n3laOo/IYNgf/U32HIn97G+T/ts9vAvI18cNLFG8tx254arChol+UA5anQY8EYDEYUFBTi9ddfx/Trp0l5jBBMH9ldMI+/jfOWHfDqnfttNmximAJP761HcGk7Ctr10JktlLt0NTSZo8eCsdATKRRVWLx4MW6cc6OYiOkMdglm1MxbMejZf+Lcnw/j7E3e00PGAuHReybvlTwktBxTIqrwcnojwipUqNXIt/v4VOixYBgNDQ347rvvcPdddwvBOINdghlx6zxc9vZyDFid41WC4e1ef7POykHB5ZizqwofH27Bvkad7HvDTgWHBNPW1oaIiAg8/eRT8Bs2QiT9fWWXYIbf8zgu/ngzBqw75hWCsVmv8+hzeGgF5lKu8t7BZoRXKpHTakCLXr7jLKeDQ4KxHX3x9ltvI8A/AP4jRhL9pJ1kBB0jl5u/nx+V40gMeeQVXPhNPAasL/S4HIbngNlsF/MiiiR+WyoxZXsV5kbV4s8pjfgxrx0ZDVq0G82yO+TVUTgkGNt5l0uWLMGECRMwdMgQDBk0CMPpU9AxcrkNGToU/ldfhUHP/wPndW18MYAaoafwHBLLmYGlOIMsF09t4T+PIrHcG1OLz462Up6iRlaLARqeF+bhQrHBIcHYpvqzLeNtlx55+BE89OBDePih+YIO8qF5D2Le/AWY/8IiPPDtNtyzswJ3767G3WRfPIH3kSjmJ9RRBGmQprQsptzkx2Nt2FymRFKtBvltBlRrTGg3WGD2lC6wHsAhwdhQUFCAbdu2ITAwEGvXrsW6tesEHeSaNWuweu16rN4ag1V7C/Az2RZP4pqCDmwsUWKXQiPN/8pu0aNOa4SabZeZEnrv0cj/oFeCERDwVQjBCAg4ACEYAQEHIAQjIOAAhGAEBByAEIyAgAMQghEQcABCMAICDkAIRkDAAQjBCAg4ACEYAQEHIAQjIOAAhGAEBByA0wTDU//5aAw+T6aTPvn/BX+FVEZcXj7DTqbnT2F2qmAatRocaW7EnopSbC8tFPwV7igvRmRVGWLqFIitr/J6xtdXI7GhBqlNddjfXI/DrY3IbW9BibId1RoVGvVaqIy83ZJVWHKVllMtWWZLIz7JzsSMrYEYs34ZAgRPyUmb12BaZAhuTdyBO/ZGej3vTo7EA8l78Kf0GCzMTMRbh1PxaU4mVhTlIEJRiuSGWhR0tKFFr4PObIKpKyLJTThOFUwlvSlCK4px885QDA38CReu/BYXrP6O+L0gc9VSqUwuXPM9Rm9ZixnRWzEnPgI3JW73et6csB23Eu9I2ol7knfh/r27MS9lDx5Oi8ajGbF4an8CXjmUgg9JRMtK8xFeU470pnqUq1XooMgjFzvnVMGoTEYcJEv2bGosxoesxpnL/4Pf/PwNfkONRPBbnEFl8Vvihet+xNjw9fhdXBgJJtxnyc8/M24bpsVaOSs+DLcn7cCCfXF4mSLQx7kHsa6sENFkW4+0NkFBL2Sl0SDZf3fBqYJhNFNIXVuah7v3bBWCscNzKLqMClmFqWTHbk6IEDyBLKTrYrdiSswWXE8iuitxF55Mj8P7WfuwRVFCtq0VRrJs7rJrTheM3mxGKXnRv2emYFDQMpxNguE3q73G44scQIIZt3UdZuzZbLfB+DpvIs7m6EPRhj/Zyt2euFOycE/tj8ffszKwojgXaU21qNGo+33/AKcLhm+eH2JzWRHuiw7HZdRAzljxtd3G42s8i/K5S4J+wpQdG/G7mK0nNRbBk3kjiUYSUJd9vYtyoD9RzrM4NxMhlcU4TClArVYNjcnUL5sDOl0wNpSqOrC6KBdjN67EmUIwEi+g3MVv82rcIMTSa95I5FyHbdsfUvbgw+z92FNbiQq1UuqSdrVoXCYYFSVnhxrrsDBhNyaQaHw9ypyxaikGhqzE5MhgzKa3pb3GIHh6smW7MYEtWzhuTdwuWbVnMhPxTWEWkhpr0KbXgzfOdxVcJhjuyWjSaLAxLwcP7tqGC6jRcA+RL3YCsFgGrP0Bo8Iod4nbJlW4vcYg6BhtPW1s2f6YHot/5B7ArupyFFEOrSaL5oquaJcJhmEwmaFobMc/U1PgH/gTzqUo44uRhnOXyzcsx2TKXexVvGDvyRGHhTOLhMP5zoK0KKwoyaOUQAkdT9PqaovOgksFwwrX6o0ILyvGY/E7MZDesr4mmAEUXS6n3GVMxHpcH73FbqUL9o2STSOxMHlw9MmMeHyedxhJDTVSh4AzI41LBWNDYUcrVhRmY0bEJlxMjceXupkvYiu2aSWui9os+W57FS7oHLJw2KLdHB+BeSlR+CdZtKi6SjToNDBanBNt+kUw3HNRru7AawdScOXWQJ8a0BwYtAxXhq/HjXHhuEWaImK/sgWdR85pZsZuk15Q72XvQwp3Bhj1Tok0/SIYRofRgMT6GixMjsYVa77H2ZzPeLFoziReuOo7jAldjVm7N9NbT0SX/qItr2HhzE+NwgdZ+xBfX+UUe9ZvguGDdFoNeqwryME9Ozdj0JofcJYXC+Ysyl0GBf4XU8KDcAtFF3sVK+hack5zC33OS9ntNHvWb4KxoaC9FT/lZ2Hq5nXgmcz2Gps3kKfA+FN0mbY7FLcm7bBboYL9Q444HG3YnqU21pLb6b0963fB8CKhI80NeDM1AVNC13plr9lFFFlGkVh4guXs2DCRu7iZHGl4NvTzBxIRWlGEJr3WcwTDaCdrtqeyDM8mRWPohuU4m+yLt3QC8CDloE0/45qdmzBHjOi7nSwWzmf4zzxxM6GuCu0UYXo7hcYtgmHwGu9NpPa5MRG4dO0PXjPf7EyymX5b1+IGEgtbgRMrULB/yVbspvgIPJYeg62VJTCaKH/pQ+LvNsGwwnlJ6s9FeZi9MwSXkY3xdHvGI/qDNq6QRvT5zWavAgX7h7+MyWzHo2mxCCwrlNqbx/SS2QNPyc5ra8FHRzIwe3uwR883Y7FcvP4nTAhbjxlRYq2LO2mzYbMpsjy1LwFLC3KQT2JRUXvrK9wqGIbWbEJOewve25csbQ5x3opvPM6enUG0Td2fHr1FmoJuryIF+4dsw2bFhePOvZH4rjgXlWo1DBZLV4vrG9wuGB6f4UHNpOoKfJSeiCnBq3DRyqUeY89sA5QjQ1bhmt0h0tR9kbu4jxxdWDD3kFi+OHZY2tZJbXLeJhpuF4wNTRo19lZV4NXkGFwbuhYDpEgjf3t2NlmxYUHLcPX2DdYE004lCrqeXO4c2bkO5qXuwd+OZiCpoRr1Oo3TxMKQjWAYvCMId/stTIqWZgKcQ1FGzpGGrdh5a3/ApPD1mBW9VQxQupG2yMLCYbHE1ynQZuh99/GpICvBmMhn8u6ZOytL8HpqPMYErcC5FGHkKhoeoPTnvGXPZuvkyhMqUbB/yGLhHrE7k3bio+z9iKr9ZQqMsyErwTC4j7xGo8LuqnI8m7gHV4Wslp0948FJ3i5pOOUt1+4KFgOUbmJ3G8br+98+koZoEgtvPetMG9YdshOMDcftWXI0BsvMnnEX8sANyzGJ8hbuvhR5i3to6z7+xYZVucSGdYdsBfOLPSu12rMN7rdnfO1zuwYnp0RswKyoLUIsbiCXOVswJm87u/h/bJhzuo9PBdkKhmGzZ1Fkz14iezY1dI20N7G7Bjd5fOjSoJ8wjpL82ZTk30JvN3sVKug62qIK70k9Py1amoEcU6twqQ3rDlkLxgYNb9lUV413U+IwJmg5ziex9PfgJuctv+Uu5K1rMDV2K25O3C5mIbuBnK/wSsq79kbi0/xDyGiuk8bxXGnDusMjBGOmMNuu12FffS2+yT6EG3YE4/J+nHtm2ybJL3Q1rokMto7kJ55cmYKuo82G8dywP6bFYlVpAQ62NkmLEvlojP6CRwjGBp4LlNvWgs+yM3FXVBiGbFjm8qUBLJbz1/2IYSErcR33iMWGSRvI2atUQeeThcJRhW3Y3ZSvvJCZjB8Kc3DMSXPDHIVHCYbBSV2tRoNlRbm4jRovb2HES515ENFeg+8LbTaMu4/58COuQGHD+o8sFhbKTIosN1K5v3wgGVsqS6T6d3Vyfyp4nGA4seMN2srUHdhVVYaXkmNw/ZZAXEiN+yyyaM7aWKO7DeOxFh6YtFepgq6hTSwcXR7LiMVn+YeRXF+DKrVKqv/+SPDtweMEYwMneW0GHaIUZfhwfwpu3xGCYRRtBnC06aNohA1zH6VcJT4Mc+jzTrJgz2Ym4vuiHKQ11UkrdV25b3JP4LGC6Q4+ZOfngmzcGr4JQ9aSRetDpBE2zL3kqMIHKd2UuANPkVhCFSUoUbVTRHGPBTsRXiEYPiqwVNmOnRUl+Ou+JEwJ34DzqdGfsfw/DvWkCRvmPkrzwYj85z+mxUgWLKquSjo3lafnuzeu/AKvEAyD19XwtIi4umosProfd0RuQcDGFT0e6BQ2zD3kiMJCuSlhOx5MjcLrh1KwoiQX6WTBmvXcZSwXqVjhNYKxgXObRp0GgaX5eDJhF8YFLf9FNCeIxEZhw9xH3ixkOuUsd6XsxuKcA9ZdXVw8H6wv8DrBMPQWMxQaJZIVCvx08BCeiNqOiZtWWi0as5t4hA3rf3JU4eMpmPel7MGrR9IQWFGEAy2N0p5h7uoy7gm8UjA2qHUGlDa1YlvRMSxKS8DN24MxdP0ynEsiOZNEc87Kpbhk3X/hF7IaU4UNcyltC7z4uD3+/9/vjcQLB5Lx72NHEVFTIZ3n4o6BSEfh1YKxwUJvLO4U2FhWgDujwjBiwwpphxpe1TkpdC1mU77Di7+EDXMNbaP1M2K3YVrcNkksiyiqxJD9UqhVfd4rrD/hE4LhytCYjKjSqJBWX4Mf84/i+bQ4PBC/A7fEhOGG6G2SPWCrYK/CBXtHLk/OUXibVp5dPG/vHrybtQ/BZL9y2pop19RKuwZ5ilgYPiGY7pCijaoDu2sr8XNJHt6jCuRjrPkseJtlYPvAEyz5zWivIQjaJ5cXlxuXH5cjl+fcxB1YkB6DN4+kS3PAYrmrWK2U6sET4XOCsYG7oZUGAw40N2J5cR6e2ZcoiWYGvRG5ovntyBSi6Rm5nGxlxuU3ncqRy5PLlcuXy5nLm8vdk+GzguFq41WdPHZTRhEnrbEOIZUl+CL/MJ7aF4e7krsiDlU8jxPwW9NeQ/F12gYcuZy4vLjcnqCI/c+cTGwoL5TKlcuXy5nL27Pl4sOC6Q6eyKc1mVCtUSOzpQFB5QX4V95BvHooBY9S5T+Qsht3JFkFJM1zok9fjTy2SMLlwEK5JWE7iSQSD6VFY+GBZHySewCBZceQ2lArWS8uV3dNlHQFhGDsgOctsXiSqNJ/KM7FO0fT8TgJhycEsmXjhUz8ZvU10fDzShGFnp/LYRb9+f7kPSSUvfjXsaPYUVMu9UZ6an7SEwjB2AG/D3kKebNeh3J6S/KA2o7qcnxXmCV1hz5KSSy/Xbmb1Na7xvQ228bPY3s2fk5+Xn5ufv43Dqfi38eOILSyFKlN9Sgi21Wv00q9kZ7U6+UohGB6AD5loE6rQXZrs7Tv1aqSfLyfvR+vkGX7874E6eDRu5J3Sev8bQ1Nyn8k22IVlBwjki1i8P3xfdp6to4Ln56Hn+sher4n98XjpYN7pefm54+sqZBeJAqKxGoPGHB0FoRgHAS/PfXUQGo536E3a0h5kZTgPpOZiPtS9+BOSnrZ1/MbmaepTyfyWIStIXIj7c4TG7EreeK1bcKW5nPRffL98n3z/fNz8PPwc/E2Rms4L6EEnp+bn9+bo8ivQQimF7Ct+uSenxpqQIXKNqmzYE+tAqupYS05dhiLsjLwHL2RH8uIwx9SduPOxB1S47w+dutx8oAe/52rhcPfz9fh63W/Pv8d3xffH98n3y/fN98/Pwc/Dz9XAT2fQqNCCz2vO1c7ygFCME4CTxhkARVR49rf3IDo+ipsqS7DyrICfF2QhU9yD+JNyn+eOZCIJ/bH4xHKA/5AVoe3OL2XbM9tCTuk/IDf9s6itRcrQtrsjq/D1+Pr8vX5Pvh++L74/vg++X75vvn++Tn4eeQ8EdIdEIJxIbi3rd1oQpVGj1KVCodamhBTp8AWRQmWl+RJi6R4psHC/UmYtzcKc8gKzaRGzpxB+YREavg8CGglWbyTaP03/jnb79i+YzaJ5b7kSDy3P0G6Dl+Pr8vX5/vg++H74vvj+5TLqkY5QwjGhWDjYrKwfbNIHQftRgMa9VrUajWoIItTrGpHfkcLDlPynNpQh1011QivrqQGXYp15YVkiwqwsvQYfizOwTcFR/ElNfgTyX/P/84/xz/Pv8e/z9/D35fSUEvCaJSuw9fj6/L1+T74fvi++P74Pn3XaPUcQjBuBucDvFGhwWRGu8GMFj2JSqdFhVqJMpUSJaoOauytyGptkhr+ieS/53/nn+Of59/j3+fv4e/j7+Xv9+W8w5kQghEQcABCMAICDkAIRkDAAQjBCAg4ACEYAQEHIAQjIOAAhGAEBHoM4P8BfdN4t3bQJTkAAAAASUVORK5CYII=;" vertex="1" parent="1">
          <mxGeometry x="450" y="140" width="131.61" height="140" as="geometry" />
        </mxCell>
        <mxCell id="tmPHs044Vx8_ZgwO9Ury-4" value="" style="shape=image;verticalLabelPosition=bottom;labelBackgroundColor=default;verticalAlign=top;aspect=fixed;imageAspect=0;image=data:image/png,iVBORw0KGgoAAAANSUhEUgAAAMYAAADuCAYAAABiZHgGAAAAAXNSR0IArs4c6QAAAARnQU1BAACxjwv8YQUAAAAJcEhZcwAAFiUAABYlAUlSJPAAACz0SURBVHhe7Z0FeJTXEobrpaVG5dZulbZYgRgJEZIACRrDL1JKKZQqLaXFqSNFCwTXQNAYkkDw4O7u7hL3hO/OnN1N07AUQvbfbHZn+nzPBgr7kP3Pm5k5Z2bOAxATE7vNBAwxMSMmYIiJGTEBQ0zMiAkYYmJGTMAQEzNiAoaYmBETMMTEjJiAISZmxAQMMTEjJmCIiRkxAUNMzIgJGGJiRkzAEBMzYgKGmJgREzDExIyY6cG4RcrJFYnMplvZObiVS6+3ePGZxkwHBv2jbqVnIfd6MnIOXUb23gsikbbadQ7Zu88j5/R15N5Mwa2sbLUOTWGmAYP/Ldm5yD0fj8xVh5HyUwySO4eLRJoqqcMsJH8xB+khmwmSs8hNStN5EROYicAgb0G05py9gYzF+5D0SSgS/MaJRJoqselkJH8ThozIXcg+chm30jKBXIvyGAYwriMjei8SW05FvPcIxHv9hfiaI/WiX4tERZFhTdFrQp3RymOkDl+FrK2nkHs1UeUaFhZK5QODPUaHmUioPwbxvsFI9Ce6A0j+Y0Wi+5cfqQGtqTrBiKe1lfjRdKQFxyFr5xnkJqbhlolCKINpAkZyx1l530SCAQyRqCgiMOJ9Rqn1xKF6av+lyFx+CLnXkmntkacwsWkPBpNu7BsViQojXkcERhJ5itQ/YpEZvQ85J6/pkm3T7dLmmYAhKjFKDByPlF4LkbloH3IvJwIaeAqDCRgiy1fDMUhoPBEpfRYhI2IXco5ewa20LLXutDIBQ2SZ4ty0Ia0dFnmKJFpTGWE7kX34Em6lZphsW/ZOJmCILE6JQRNo/VCy7TtKKenj6UgbugLZhwiKFIJCQ09hMAFDZFliT0FrJ6HeaAVHYrPJSBkUi/SNh5FzI1l3VmEGEzBEliN9+MTnX/ya2Hoakn9ehLRle5F1Mx65tMbM4S3YBAyR5YjXiv5gOIHLPXrMR9qWw8i6Ho9bOaY71b4XEzBEliMOn7hagqBI6bEAGXO2I/v8deRmZpoVCjYBQ1S84vCJ1wjnFfoQKvnbcGRM34Kc/RdwK9X8ULAJGKLiFa8P8hTxXlwYGIykttORPm4dsneeBTIop9B4W/ZOJmCIileG8wqG4rNZSAteg6xNJ3Un28UEBZuAISo+MRSsRhOQ9FEI0oavRNbGE8i9moRbmeQtitEEDFHxSHkKyitofSS2moq0QcuQFXdEtajCTGcV/2YChsj84v4KDp9ojSQ2maSS7cxlB5Fz7qZaR7yeitsEDJH5RWtDbc0GUQj1zTykTlinBhoUd/iU3wQMkfnF27K1R6kuvJSQ9cg4dxG56Rm0jIrfUxhMwBCZR4HjdXkFQ+E3DkmfzkTa2LXI3H4KOancmlr8eUV+EzBE5hGvgwakemOQ1H4mUoeuRNaWU8i9lmRRnsJgAobIPOK1oA+f0oYQFGuO4tYN3oEy7RADU5mAIdJOaveJ1gGfbNcdrXagUn9fgsyYfbpkO13bLryimIAh0k68JctQ0DpIbDYJyV0jdMPRDl82SxdeUUzAEGknQwl5/dFI/i4MGTO3IOfEVR0UlsuEMgFDpI34ufPJduB4JHeYifRJG5B94CJuJaabbL6sliZgiEwv3palnIJfE9vNQOrw5cjcdFzXr23B4VN+EzBEphV5CB7LqubLBk1Ecs/5SNt6BFk3E9QdFiXFBAyRycQD0TivYG+R2HgSUvpGI2PhHmRfvFEsXXhFMQFDZDoZQii/cUj5IUrNgco5dc2it2XvZAKGyDSi56yeNz33JMorMmZuRc6hSwAXBpYwKNgEDFHRpT/I4zOLpM9nI23MWmTvOKOunSspyXZBEzBERRM/X4aCvk5qG4K0v1bpWlMtoAuvKCZgiO5fhvCJk+0Wk3VdeGuOWkwXXlFMwBDdn/Q1UBw+JbacgpTeC9XFpDnnuQvPvMPRtDABQ3Rfiq8/WoGhZsv2mo/0edt0UJTg8Cm/CRii+xKDwduzKd9HIC1iKzIuXEJuhmV14RXFBAxR4eRPeQVDwf3aHWcjfexaZOV14ZWck+27mYAhunfxAR4/T96W5dbUwSuQtZqS7QvxVuMpDCZgiO5d/Cx5PH/geNVwlL32mEV34RXFBAzRvYmfIz1PBUW/WGQtO4jciwkl9mT7biZgiP5dHD7xAR7lFYmNJ+qGoy05gNyzN3S3G1khFGwChuiOyrsLz2eUUvKPUchcuFfXr83j+a3YBAzR7eLy8QASPUM1MZC8RtKnoUifuhE5x67gVnLJ6MIrigkYotulwif9XXgESVKHmUj9a4WuC8/ChxiYygQM0e3iIQb68Cmp3XSkDlmG9F3HSlwXXlFMwBDdJn5u8TwcrdlkpP6xBJnLDiD78s0S14VXFBMwRLeL8wpDF174Ll2ynVHyuvCKYgKG6HZxXvFJKDJmbUPOkcu6Ug8bgoJNwBDplG+cZvI385AxbTNyeA5UQprNQcEmYIh0z4ieF7+qa7+C45Cz9zxuJdvGDpQxEzBsWRQyJQaMV8+Jd6ASGk9E6p/LkLX2KHLjU63+rOLfTMCwUakZUPxseA4UPavEllOR0muB6sLLPR9Pz9N6yz3uxQQMGxV7CnVewV14/5uClD4LkB5GyfYF6+nCK4oJGLYoQ2Ggfr6s6sKL3IaMi5fpOWbpH6ptm4Bhi6JnojvAm4SUHyKRPmMzsvacRU5ams2cbN/NBAxbkmEwGrem1huD5K/nqfH8WTt1w9GsrQuvKCZg2IoM4RN5iry78IatQvb648hNYE8hUOQ3AcNWZACDG46aT0Ya35q6+ghyLyWoZyf2TxMwbEEMBYdR9CzUcLTuUchacQi5PAeK79eWEOo2EzBsQfwM9EMMONnOmLMNuZfJU5TwMZpamoBh7eLPnz1F4wlI7jQbGdM36y6ITLOdEvL7MQHDmsXhEw9cbkRQ8Hj+0WvUeH4Jn+5uAoY1i9tTvUYgqU0I0oavRDaXkFv5EANTmYBhreJmo3q6243SBi9H5vKDurMKySvuyQQMaxLvPvHnzYWBpLzW1Jh9yDlje114RTEBw5rEnzV5inivv3RXCX8ficx5O5Bz9Iq+C0//vMTuagKGtUh5Cgqf6tJnTiFUCkGRMWc7cg7ZbhdeUUzAsAbx7pO+hJyHGCS1D0X6+HXIVl146YAUBhbaBAxrEH3G/FnzvRWqNXXIcmStO4bcBNvuwiuKCRglXapilkSfM2/Lpv4UjayNx5F7OZGeiZxX3K9pAgaPdBQwzCT6nFlJraYh9ecYZM7frb9fWzxFUUwbMD4N1cW8Aob24vmydUcjpUsEMqP32fwQA1OZycHIXLwfaR1mIzVgAlL9SIET70sppMTACarwzSDdFG5aDAwbhxAFF4ktib5/lVO0mKJaU9NnbEH2/gu6fm0Jn4psJgMjl8DIPHcVSUt34mzHyTgZOKJQOhcUjMuNxyhdbTwW1xuNu003g3RN/El+45DsPx7JBI5BSfnhyQ+RtYl/IPAPBs4r6LNIZihCNiNr11npwjOhmQQMfhhZWVlIuXgeZ1fGIbpjP8wJ6F4oLWn0MzY0G6i0vdlgHGg6DCcbj8TpxqPydKURJZhBE5AeNAkZQZP/If49/n982YlBVgeHodmIhxhQXpH48QykjV2L7L3nkJuSLlCY0EwKxqWzZ7A2ZjF6fPQ5PqkVhLZe/ujg2wSf1Wl2V3Wv3xYD/TspBQd0RkjQjwgN6oaZgd0wN7AHlgT+hFWBv2J9YD/sbTwUB5sMz9OxJiNwuskoXGg8muAZg+vkWeIDaRERGByOcVjGXiV/WKa8i7HFZ6ky7D5xss29FS2nIm34Kt227A2pgTK1mRSM06dPIyoqCs2aNoOLiwscHR3h4eEBL0+vO8rT0xOeNTxR18sHjbwbKLWuFYjPfAkYvb70bYEevm3Rx7cdfvVtj5H1v8KYht9gbMPOGOf/LUIJnphGP2FLowHYEzQYB4OG4nTQSFxoFKy8DJddswe5GTReKZ5U4sBgKPhkmzxGUptpSO2zCFnLDyH3nHThaWEmBePUqVMIDw9Hw4YNUaVKFVSqVEnBUa1atX8V/5mK9vZ4x84uT+/eQe/Tn7N3cIQz/T1Xl+pwd3dHk1oN8EP9Npjs34XCsm6ICOyJuKb9VEh2sOlw5Ukukycx6HoQx+dGFp8lK98uX0rvhWoHKocviOSGIzGTm8nBiIiIgJ+fX6HAcHJygr2TI6rQny2oyg4O+NDBHpX1v65KcqQ/z3/P2dlZeSbP6u6o71YTLWvUx0eefmjr6Y+O3o3wuVdjfOHZGJ95NEHf2u0wzq8zZgb8iOjAvtgQ+AcONx6GS41Gk/fQhVv5d8MsJj8hENTtRgwFeb3kTrOQzl14x6/qhi7L1qwmpgkY/v7+qFq16j2D8W9iaO72Hvz/HQgg/rP5ZUe/z57oXbuqqOHmiY98A/Fl3RboVf9jDGn4OaYGdEVUQC+s8v8VuwIH4UjgMJwKGoGzFIJdDhqDm5Sn8G5X/t0vNdrS2ALWShRCxdccqb7mLrz0MWuQvfW0ruFIRt5oZhYPxr3IAEZBVSAo3iYoWJWdq6mwi+Xt5Q2fWj7wJdXx8UXjun7o698e4wK+zQvDOKm/RvlJaoEdsBT2JgUXr5Zij0HeQjUcUbKdc/SyhE9mMKsAo6CnMMieVEUvh2q68ItlR5B8SGGYkoszHF3dEOBdF219G+GbBq3wm18HBUk4QcI7YesCf8fmwP442uQvla/coBwl2RyhF2/N+pPX6jATaUNXIJNH3kgXnlnMKsD4N3EewmJQ+N/C4rylHOUtBlV0dEA1ylVcPTzg6V0T/t711M4Y74b9XPcTDGjwGUYEfI2FjftiY6P+OBQ0DOcpN8l/EMmHjwqO/DK22O9V+pP9xNbTkDpoGTJjD0gXnhnN6sH4Nxmg4a/538mh1zsUdulkhw8IIBfyJrVr10azhoEUbn2KsfnCrfwHkWpbON/hojpgLLjY71X6gzwu90juNh+ZSwkK3paVwkCzmU2DkV+60OufO2JV6feqETjVXV3h4eaBWm41Ud/NF008GqBjrSboXe9jBPt/g0WBfbC90Z841YQBoaTd4D2MLfq7SV/ykUhf87ZsxqK9yDlFniIlQzyFGU3AuAcpaOj7qJA/9KpeHXVr1ELbWgHo5dMGQ+t2wuQGXTA/oDc2BfTDsQAKt4JG4VogLXKC5B+1XAVhMEh/sq3mQPEk8tCtuuFosgNldhMwiiCVt1C4xeJt4fKU4PvUqYOefu0QFdgL25r+ibONg/Pqu1KCKFE3FmIxNIa78OqORtJHIeoq4ex9F5CbmCZnFcVgAkYRxN/b31vDdnifvImLmxsa1ayHTnWao0u91ujXoCOmNOyC5QG/YH/QEHXynkxwGMrr1Y4Wj7vxCSZvMRZJHWfphqPtOIPca8nShVdMJmAUQQV3uiowJPR7zhRmVfeooVTPywftfILwS4P2mObfFasDf8PhwKE4S2EWQ8JnJfHcgVdX14WXNmgZsuKOIPdKotyFV4wmYJhY/P3mP1isRPlIdQLF18cH/6sXiK76mq7FjX7GlqaDcKzxCLXdm94iBKk/RqnhaHyRi4RPxWsChon1j90t+po9iBP9flWuNq7uBi9XLzSvUR/f+7bEX/5fYWFgH2xuNACHPh2HYzNW4vqB08jNlLOK4jYBQ0PlnZEQHBxm8Y6WIdyq7eaFlryj1bA9/mzVHaO7j8C8pSux/eQJXEtNQXp2NnLoc+X/xMxvAoaZZchLONx6j71JHV9U/fIz2AcPRrvFkRizeyu2XDiLSykpSCU4cm/lChrFYAJGMUjB4VwNdjW9UKFjO7z2Wy+UGT8Mb4dOgFtkKJrFzsd3m+Iw7dhB7Ll5DckZGciVU2+zmoBhZnG+oUpRatWEXYumeP2nbig9cgAenDgcD04YhscnDMfzU0ah7NypaLoiGoP3bEXM2ZPYeeMqzqQmIy0rUwcJfeZi2pmAYUYpT0FydXWFQ/MmKNujC54Y0R8PERAPTfoLD40bgofGDta90q+fnxaMCrMnwXf5Any3cwNCTx3B2fibyCAPInVT2pqAYQ45VYODnR2c6LNwqeEB5yB/lP/+K7w8YgAeGz9U5y30HiNP9OvHSc9OGoFXZoyDfcR0NF+2AIO3b0TMqWM4nHgTKZnsPcRzaGEChhnEnkKB4e6OaoF+qPRlB7w+4Cc8NXkEHqaF/yB5hwcIgoJSgJD3YD018S+8PX0svCNnovPGlZh64hC2X7+CsynJSCBAssiD8HMQM40JGBqLv3/DZ+DkVx+VCYpXCIonx1DIRGAYA8KYHiTPosIs0nthU9BkfSwGHNyJyHMnKUG/jkQKr3LkUNBk9kCGCUY6Chh3lqO9g+okdPRvgAoExat/9Ebp4D/xCHuDO3gKo8oXZj09dRTemDUBVcOno8mqaPy2bxviLp/HBUrOGQ5xHEW3B9buOYn9py7j3NVEJKdlIpt/6hTykxUwjIhhcKDvnb9/zxqo8mlbvPFLD5QePQgP00IvFBQFlD/EemXmeNRYEoYft67FtKMHsOnqJVzLSFehldj92wOt/piLX6atRPia/Th2/gaSUgu/4yFg3C5OtO0qV4G7qyu8GwWiXPcuKDO8X6HCp3sRh1iPEiBlKFepHDkd7TavxEaCIz4zQ/90xO7HBAwTi79fw/dcw8MDzs2boNwPnfHckN/wGC1gLcB4mN73cfJA70RMQ7010ei9ZzPmnD6K3Tev4Tp5j0zxHoW2B4aFrce8uH3YfPAcLt1IRnpGllrohTEB42/x98u7UM7u7nBt2hjlv/8azw/9HY/wtiwt3qKEUMbEucqT9Prc9DF4f/4MeKyMQsO1Meiycz0mHT+AtVcu4HhSAhKyKEyW8pJ7tgdS0zMLDUJBEzD+KZfq1eFc1xfv/fgtnhv2h1rA7ClMDQXrSXrPV0NGoyKFUc6x8xQYLssjlOfosGUVft23BXPJe+yNv47k7CzkFvFZ24o9YIotPgFDd1bBYihcCIoq7VrjhT9/wePjtPEULH7PF0PHERQhcIsNg+eKKNRYNV/B4UmvvnGL0Gj9EuU9xh3bjw3XLqpzjzRVnCiA/JvJOYaJpMBwcYGLb23Yfdwa7/b5EaX0ZxVaQPEwvW9p8hTvhE2Fy+K5qLVyPmquXqCAYLkTHK4rItUrh1Ydt67GwEM7sejCaRyl0IqTc9m5urMJGKYS91541oBj6xYo+0sPlJk8Eo9qBAW/Z6mpo/Dm3MlwWDgLXssiFRRe+cDILzcOrwgS/v9ddm1A+NkTOBB/U3au/sUEjCJKlXtUtYNDTW/YERTv9OyC54f3w+MEBRcCGlvYRRFD8TR5CobCnqBwXxoOb1r8XquMQ8HKH14FrY/FFzvWYvChXVhy8QxOpyQhPSdbGqIKmIBRBPFZBVfL2nu4o2qLJqjQ7Vs8T8m2Ia8wtrCLKg7NXp49EVUXzYLHsgh4UwjlfQdPcSf5rFmEVpuW47f92xB57gQOJd5EAnkPgeNvEzDuQ4aWVQc7e9ixx2jZDB92/w5vDeuHUnwqrREULAbjzYhpcKcFzkDcKXy6k9hzcN7Bfzdg3WJ8uS0O004cpNDqOnJkOzfPBIxCiIHg0Im/J5YT91XUr4cKnT/Ha1wtS57iEYLC1GDwIR6XgTxOecXrcyehaswcBURhoWBxWKVCKxLnJQzHtzvWYeyx/Yi7ehFX0tPkQJBMwCiEDGA4MBgEhX3DBqjUoR1e+70Xngr+M28HytRgPERglKL3fnHmeFSNng335ZGFDp8KyuA5vOhr3rX6dOtq9D+4E+uvXsL51BSkUd6hG8ZgmyZgFFLKY3Brah1fVPrsE7zev6/KKRgKlrGFXVTx+77A5xVRM1SSXTNuodHFfj9SB4IrItXOVeC6JfjryF7EXbmg4OCk3FbPOwSMQkh9LwyFtxfsPmqFN/r8iCe5WnaCbrdIi9ziEYLiJfIU5SNCUH3xPHhSsn0/IdS/KX/e0WTDUvTZtxXh506q845E7jG3QTgEjELK2csTjo0D8TYl288O+0MTGAziswoFBZd7xMyFF4VQDIaxxV1Ucd5hOBRstD4W3fZsxtwzx7GbkvKbmRk2V2clYNyjOL9wdXODc6AfKn79GZ4YMcDoYjalXpk9AQ68LRsbDq8VunMIc4g9SG0K1z7bGoeJxw9ij6qzsi3PIWDcg3jMvwN/TVBU/bIDylKyXWrsEM28Be9svUDeonzYVLjHhsGLFionycYWsRZiMPjVb91idN65DuOPH8COG1dVA5StwCFg3EUq2aZXey8vVKVk+71fe+ClUX/iUX1eYWxh36/4/TineHpaMN6bNQnVFs6CN3mK+zmvKIoMJ+X8GkAJ+dc71mLyiUPYfP0yrqSnIjMnRz1zazYBw4gMB3g8HI3//U6UVzg1b4Lyv/TEC8GDNN19eipkNF6fMwmOC2ajxrJIeJtwB6owqkFg8G4V5x3118ag07Y4BB/di/VXL+JmeprVD14QMIwo7xDPmX7NO1BtWuKDPj/i+ZEDUIo8hRZgPEzegqF4c85k2C3gco9ICqFMvwNVGLHXYPG/of6aaHy6dRUGHtyhG7yQYt2DFwSMAsqDgl6dPNxhR57ive7fUfg0EI/RAmYotMgtHp0yEv+ZOR6V5oeixlKCYpV5w6c7ybBbxaoTtwgfbV6BoYd3Y/Xlc7icmoLMXAqr9OvAmkzAKCADGM4uLqhWtw7e66Z9Fx6/ZynKK96aOxlOS+ahNv10tgQoCoq9B+c7zTcsxaBDfEp+EQlZGVaZkAsYenFeoXaf7Ozoaxc4+jVAhS864PnBuiEGhgVccFEXVVwHxXOi3pw3GY6L58JDn2wbW5jFLfYe/OpDec/HW1ZiwIEdWHbxDM6mJFkdHAKGXqqE3N5BlXs41a+H8p3a4+V+fRQUWgDB4rziWYLiLS4MjKZkmxadJXqK/DKEVtw222bTCgw5uAtrrlzAzcx0ZOdazyGggEFycnRSM6D41cXXBx+Sp3hpwE9GF7MpxSfb5SJDUC123n2XkZtbBjC4tooPAblllg8B+YTcmg4BBQy92GM4+dSGfduWePOnbnh6xADNPAXrKcopVBcehU/u+rZTS4fCIAMc/LU6BNyxDuOP7cd2dQiYZhVwCBgkvn64Wu2aqML92t2/QxkNu/C43fWxKSPx2uyJsFs4C67LI9QCs9S84k5iOLinw5P+3arhafsaTD5xEDtuXlVjerjpqSSbgMGq4aGGGLzbswueHTkAj9IC1iTR1kPxvKGEfJl2RYHmkLGwasapoziVnKwu1+R1UVLN5sFw9vCAQ4Af3uF+7aG/47Hxw/CQkUVtCnEHHlfLfjg/FK6xuiEGxhZcSZIBDvYenJD/uGsjos6ewMmkBKTQmiipcNgsGHxewWcVTn4NUEm/LWtoODK2qIsig6d4KXQ8ykVM1032uI8hBpYqAxxcst54fayanbv4whnyHIkltq7K5sDI69smVXdzQ9UOH+uHGOgO8LQAgwsDn58xFuXCp8MtJow8RclJtAsrDqvYc/x+YAdWX7mgZldxi2xJM9sCI+8uPPIWXp6wa9Ucb/b5AaXzDTHQIrfgwWucbFfl4WgreAaU8UVlDWLPwdC32LyC4NiOJRdO40Z6Wom7K9BmwFBewsEBjvb2cPLygn2Lpni/5/dqOJqh1EMLKFSyTd7ifXVeQd6CklRrBuPv3aqFaLlpOfrt24Yt1y6r6whK0mgFmwGDZ0DZV6mK6jzyhqD4oFdXvDxmCEprFD4ZpEKoyOlwICjUIV4xlZGbU4aSdQ4ZW25YgZFH9mHnzWslam6VTYDB/waWE59XBPmjXOfP8Z9Bv6L0+GGazIFi8XkFl5G/GzENLpRsq644CjGsNbcoKFWuTq8N1sSoM46wsyf0M6u4Gtfy8bAZMLiEnC+IrPhVRzUHSk33oAWsBRScbDMUb4dPVSfbvFBKQrmHqcVhFX/fgesWY+DBndh47ZKCIyMnhxeNfvVYptlOjuHXAJW/7IiXB/5c6KuEC6vS04LxxrwpcNOXehhbNLYgzjUMNWAdtq7GmCN7sfvGNdzkfMPCpx1aPRhc7uFcsyYqtG+LV/v1UbemFvoq4XuUIXx6m6BwitF5ClsGgz0Gi0Oq+mu5A3A1Zp4+ioOUb6SnpyPXgj2HVYOhere9PPFh6//h9d5dNQ2fHqP3fI4LA+dMhv2i2cUyxMCSxTlHnTXR+HH3Rsw/cxznEhOQkW25J+NWDYaLqyscG9TDK7/2xBMEhbEFbSqVmToKH8ycgGrzi3eIgaWKwyqGw4d+UPy8b6vFd/9ZFRh/d+HZw4XLPfwbojzlFc8M74eHKXwytqCLKq6remrSCPyXBy5HzYDnUt2dFeIp/il1vkFguJMn/WRrHMadOIQDifEWOwLU6jyG6sTjsg/yFJU+/xRv9P9J04tc+FT71RljUSEiBC6x81CLFkD+u/BEf4vhqL4iEn7rlqDL7k2IPHcSxwmObL7RycLgsBow8g8xUF145CneGvizpnfhsXRdeNMJijCVZKqTbQHDqBgMLhnhquJG6xaj755NWH3hjC4Rt7BdKqsDw8mnFuzbtcZb5CnKjBmCxwgKLe7CYz3OFbOzJsBu8RwVIkiyfXcZQqpaqxei/ZaVmHJkL45cu4K0zKLfN29KK/FgMBBKnF/U9ELl1s1RlmugxgxWF0Rq4Sn4PbkG6j8ERfkFoajOU8gJCAbD2GIQ/VNcgcuegzv/eu/aiIWnjuJKaooapmApVqLBMHgJB0643d3goLrwvte0C4+lysi5C2/hTAmf7kP5D/5abFyG3/dvw6GEm0jNztavqOK3EgtGXuhEr9Xc3WHv31DdWVFGwy48ngHFV369MHM8PiBP4bwsXMKn+xCHUyqkItVfE4PPt65RXX9HKRFnOCxhl6pEg8FDlxkKB4KiQqf2KDPoV2268CYQaKRS5IFenDEWZSOmoRpBwQ9Xwqf709+J+AI0WbcUf+zbhtiLZ3AhNdUixn6W7BzD1RXOdeui0mft8Vr/vnh07GAVPpkaDPYUjxEYXEJeNnwqHGNmq4crnuL+ZQCDE/HalIjz2M8RXEtlIfOpSiQY6j3JU1SrXw9V27XBG3274QkuDNQf4j1YYGEXVY+TXpgyCmXDphAUc+DFxYEFHrSo8FLhFMNBr+w5ulIiPv/8aZxKSaWQqngT8ZIbStX1RZWP2+Ct3l3VybZWiTa/b5lpo/H+nMlwiiZPsTxS/YQTMEwjg+fgg7/Wm1dg2OE92HjtKq6kF2/HX4kDg8s+XDnZ/l8zlO3VVXkKzaAgPUxh2ZtzpsA9Jgw+KxcoKKQOyrQywNFgbQy+2r4Gc88cw9Gk+GLt+Ct5HqOGB+xatVD92v8ZqbuzQgsw+D3z7qxYEArPFVGq1IMl3sL0Yjj4c+UbY/mucb7zL7sYR++UCDDUDhSLoHAI9MP7Xb/By0N/V/3aPDHclGCwl+AS8tJTR+FFgqJ81Aw4x4aphydbs9qK51LxiXjX3Rux4NxJXCrGi2ksGgzDDCh1gEfv49CwHip/pW0XHvdrcH3Vf0PHo0LUdLjpZ8uKtBefiHMy3mxDbN7FNInFVJpu0WDkeQoXZ1Tz9lZdeK/066MajrgLz9jCLooepPd8lFQmhJLtiBBUXxquHph4CfOIwykWD2z7Zuc6hJ4+iitpqcgphlIRiwWDgeC/qyZ71KoJu5bN8QblFQqKidpM9uCJIU9TXvE6D0eLnq2AkPDJvDIk4i02LsfAg7twJCEeaTwg2swBlUWCwX/H8Peca3rDsVljVRj4rMZ34fEQg9fmTFQXRLK3kN0n84vB4JlU9dZE47ud67Hu6iVczUgz+w6V5YJBrwyFA0FRvvPnqgbqUf1deFqIQeNkm3eg3Lhalh6Q7D6ZXwyGK3kMn9WL8PGmVZhw/CD2xF83+w6VZYHB4RMl2s70dXVPTzg2aYRy33yOl/v31fYuPPJAz84Yi/d4ONqSeSp88l4t3qK4xAk4X+fst2YxeY0NWMLNTFnmLS60KDAMd+G5ubrCK8Aflb/uhJcG/qzpDCjenn1i2iiUj5oOl8VzS/xlLtYi3qFyXRGFuquj1R1/8RkZZu3XsLhQSm3R+jfEh199hhf79UGp0X9qBgZ7oDKhhoHL81CDu/CMPCSR+cUJOMuXPPcf+7erwdDX1IhP88BhEWDkbctWd4FLHR98+Glb/Pe3nng8mKDQL2BjC7so4vBJzZYNnwZnhoLdt34XytiDEplXqriQVIuexzfb1yL05BEcS9Td0kQLTr/ytLNiB8OwLasO8LgLr00LvNtL2y487gF/Ylow3uJbU7lalh6EdOFZlgp2+f2ybyu2X79KIZV5xnsWGxiGU23+//xazcMd9gF+f3fhTRhm8nIPFr/fM9PHqKuEq0bN1N2FRx++QGFZMhz28Q8t3rrttDUOyy+dw8W0FErCbQEMhsLdHY6B/moS+fNDfsPj43VdeLyITQkGewoed/PfOZNgt2AW3JaEqeJACZ8sWwxH0w1LMev0MRxJjFfT0nnNaWnFGkoxFI4uLqhWr67agXpzuBnuwgsdh0pRM+C9LFJXKStQWLx4h6oueY3hR/ZgEyXhCZmZmt/rVyxgsKewr2oHx+rV4diwPip80QGv/tEHT44bqtnQZRbPgXonbAqcF89F7ZWUaK8SKEqCeHeKB0L33bcNiy+exYW0VGRofAGN2cFQIzT5EM/RCU51fFH5k4/w2u+9UTr4T82AYJUKCcbLcyehavQseCyPULsdcrJdMsS5hk/cInTcugYTjx/C3vjrSMnO0vTAz+xg8MBlR5KXd01Ua9MS7/builIaduGx+L1fCZsMu+Xh6qePsQ9fZNli715vdQx6796CZRfPID4zvWSDwWGTYfeJVd2lOtxr1YLjR63wdo8ueGr4H5pd5MLvyV14L80cjwoLQ1WsyjmF5BUlUx4r5+PrHesQfvaEugXWqsBw8akNp9Yt8XbPLnhm6G9qsgcvYFODwe/HO1BcGFghcjqcl8xTH65szZZM8WGfC4XAn2xdjSknD+NMSpKmd/mZLZTi7Vm+s8KuWWN1gFdqRH8FhRa7T4YhBgxFRYLCfUkYvFZICFWSZShHb715peoJ36nxXX5mAYOBcHd3R20fH1T8ooMufBo/1OTznwzibVkeYsCewnXxPAWFJNolWwwGl6MHrV+iriuLpHDqRFKCZod9moPB/drObm5wq1sHHm3b4O2fu2sWPrEYimdCxuCDsGlwjpkrd+FZiRgM3jipG7cI7chrjDq8h7zGFQWGFsGUpmBUrFgR9vb2cPL2guP/mqHcrz3xQvAgzaplWdyFxyfbjgvmyF14ViQDGFz9HKS/dGbt5fPI0egUXDMwKlf6EOXLlYdjjRqwa9sK7//UDWV4DhR5C2ML2lR6ceY41YXnviwCXnwXXr4PV1SyZYCDzzQ679qApZfOITu7hIARHh6Ohg0aoMqHlVGJvEWV5k1QtkcXvBj8p2bD0VhcB8Xe4u3wqeDeCgZCwifrE8+e4ufaacdaLLpwWrPOPtODERaG+r51KLdwhIOvD8p2+xZl/uqfV/+kBRicxJeaMlKVkdvFzM4rVxYwrE8KjFUL0HHrakRQAh6vUd2UJqFUYEAgHPwaoOKXHfD6kN/xNF/kohUU9J7PhIxWUDiou/B0P1EECusUg8EHfa02LseE4wdwNCkBaXzrq4lTcJOBkUnkKjAWLoRfh/ao2Kk93vytF54bN1Szu/AMZeRvzJsCx8Vz4cHbsgSElJFbr3TTCjkBX4KBB3diw7VLSMg0/bRC04CRm4uMjAxdKLV0KWr/1hdvEBTchfcILWCt8gq+pviF0HGoHD0btddEi5ewAfEJeA0Cg+umuu3ahKhzJ3E1NRU5OaY9zzApGMfOXMSMNVvgPDEYz40aiMfGDMJDE4wv6qKKPQXXQFWeHwrXpeEChY1I1ws+Xw1J+GL7Wkw6cQink/XlISY0k4ZSxy5eRci23bCbNQWludyDB6SZeHvWsPv06uyJqBg1A+5LeVtWyj1sRbxly+Jq21abeIznThxJpDzDxDe+mi75zs7BiRvXEXpwN+znTNUEDN594mYjlWgvnKVmQEkXnu2JweBcgy+a+WHXBuyPv2G7YBiuElbhU2Qo3JaEq58avHVn7MMTWa8YDL6ajG+34quQN127gnhKwHkdmspKBBhq94nEVwm/x3OgYubphhjwyJsCH5rI+mUAo+aqhWi/eTVWXr6Ay+mptA5Nl4BbPBi8o8XNRrz7VJagcIiZDQ/9WYXUQdmmGAwuDeHbl9ptWo3oC6dxNjXZpBPRSwQYpSjZfidsKkExJ29ioFKBD0xkGzKAwYO322xZpUpDuHHJlBPRLR4M9hZlyFtUWTQL7ssj1eGdlHvYtgxg8BpouWkF5p05jqN8wYwJ66YsGgzeheL5sm+GTYGbPnwy9kGJbEt5HoNeW2xYiknHDmDn9atINGHdlEWCwXfh8YCEp7kGivOK2HnqYMfYhySyPeUHo/n6pRh9dB+2Xr9i3WCoCyLp9Zmpo/DWnMmwi6a8It+HIhLlB6PZ+lgMO7wHG65dtl4wGIqH6e88zYWBBIWTdOGJjCg/GE0IjP4HdyLuykWTju60KDB4uvnTPJ6foLBfMBtuSyPgSR+A7D6J8ssABn8duH4Jftm3BbEXz+ByWiqyTDRSx6LA4HIP9hQ8idxjqVz5JTIuAxj82nDdYlUWwlNDzqWkIIN7M6wJDG5kenr6GNjNn5UXPomnEBlTfjDqr41Bp21xCD11FKdTklXTkim2bC0CDD7E4/H85aKmq/u1eYiBgCG6k6wejEcm/oUnJ48kKMbivcgQdRceb8vyeYV04Yn+TYbte74345MtKxFy8rD1gPHkpBF4NWQMKvFVwrFht33zItHdVJsiCz7k4yuPrQIMLiMvTd7i9dkT4bSE+7Up2aZvlH8SsJsUie4mDqVKDBgzD+6B87xpeJryhodo8T9O4RKXjOfXE+QpnpkyEq/OmoByC0JVCTlXStZU/RW6IWki0d3E5xh14hahxUZLB+Pmdcw+tBc1I2fi5ZDReJIW/3+mBuPVAvrv9LEoF8Yl5HPUlmzDNYvhvyYGDeKiRaJCKYCS7zablmMy937rweD1WFQzKRinkxIQfeY4voyLRZPFEQiMCVevTQuoxdL56LhxJTpvX4uuO9ej+66N6EHqvmuDSFQo9dy9Eb8f2I6F50/hPJ9jZFsUGFDjS25kpONA/A1EnTiMmYf33VFzjh7EgnMnEXPxNGJFoiJo6cUzWHnlPA4k3FTtrdl8X4algCEmZm0mYIiJGTEBQ0zMiAkYYmJGTMAQEzNiAoaYmBETMMTEjJiAISZmxAQMMTEjJmCIid1mwP8BplR8VGmckZIAAAAASUVORK5CYII=;" vertex="1" parent="1">
          <mxGeometry x="682" y="140" width="116.47" height="140" as="geometry" />
        </mxCell>
        <mxCell id="tmPHs044Vx8_ZgwO9Ury-7" value="" style="edgeStyle=orthogonalEdgeStyle;rounded=0;orthogonalLoop=1;jettySize=auto;html=1;flowAnimation=1;strokeWidth=9;strokeColor=#007FFF;" edge="1" parent="1">
          <mxGeometry relative="1" as="geometry">
            <mxPoint x="346.09000000000003" y="209.5" as="sourcePoint" />
            <mxPoint x="446.09000000000003" y="209.5" as="targetPoint" />
          </mxGeometry>
        </mxCell>
        <mxCell id="tmPHs044Vx8_ZgwO9Ury-8" value="" style="edgeStyle=orthogonalEdgeStyle;rounded=0;orthogonalLoop=1;jettySize=auto;html=1;flowAnimation=1;strokeWidth=9;strokeColor=#007FFF;" edge="1" parent="1">
          <mxGeometry relative="1" as="geometry">
            <mxPoint x="581.61" y="209.5" as="sourcePoint" />
            <mxPoint x="681.61" y="209.5" as="targetPoint" />
          </mxGeometry>
        </mxCell>
        <mxCell id="tmPHs044Vx8_ZgwO9Ury-9" value="&lt;b&gt;&lt;font style=&quot;font-size: 18px;&quot;&gt;Beats&lt;/font&gt;&lt;/b&gt;" style="text;html=1;align=center;verticalAlign=middle;resizable=0;points=[];autosize=1;strokeColor=none;fillColor=none;" vertex="1" parent="1">
          <mxGeometry x="248.05" y="285" width="70" height="40" as="geometry" />
        </mxCell>
        <mxCell id="tmPHs044Vx8_ZgwO9Ury-10" value="&lt;b&gt;&lt;font style=&quot;font-size: 18px;&quot;&gt;Data collection&lt;/font&gt;&lt;/b&gt;" style="text;html=1;align=center;verticalAlign=middle;resizable=0;points=[];autosize=1;strokeColor=none;fillColor=none;" vertex="1" parent="1">
          <mxGeometry x="208.05" y="90" width="150" height="40" as="geometry" />
        </mxCell>
        <mxCell id="tmPHs044Vx8_ZgwO9Ury-11" value="&lt;b&gt;&lt;font style=&quot;font-size: 18px;&quot;&gt;Elasticsearch&lt;/font&gt;&lt;/b&gt;" style="text;html=1;align=center;verticalAlign=middle;resizable=0;points=[];autosize=1;strokeColor=none;fillColor=none;" vertex="1" parent="1">
          <mxGeometry x="445.81" y="285" width="140" height="40" as="geometry" />
        </mxCell>
        <mxCell id="tmPHs044Vx8_ZgwO9Ury-12" value="&lt;b&gt;&lt;font style=&quot;font-size: 18px;&quot;&gt;Data storage/analysis&lt;/font&gt;&lt;/b&gt;" style="text;html=1;align=center;verticalAlign=middle;resizable=0;points=[];autosize=1;strokeColor=none;fillColor=none;" vertex="1" parent="1">
          <mxGeometry x="410.81" y="90" width="210" height="40" as="geometry" />
        </mxCell>
        <mxCell id="tmPHs044Vx8_ZgwO9Ury-13" value="&lt;b&gt;&lt;font style=&quot;font-size: 18px;&quot;&gt;Kibana&lt;/font&gt;&lt;/b&gt;" style="text;html=1;align=center;verticalAlign=middle;resizable=0;points=[];autosize=1;strokeColor=none;fillColor=none;" vertex="1" parent="1">
          <mxGeometry x="700.23" y="285" width="80" height="40" as="geometry" />
        </mxCell>
        <mxCell id="tmPHs044Vx8_ZgwO9Ury-14" value="&lt;b&gt;&lt;font style=&quot;font-size: 18px;&quot;&gt;Visualize&lt;/font&gt;&lt;/b&gt;" style="text;html=1;align=center;verticalAlign=middle;resizable=0;points=[];autosize=1;strokeColor=none;fillColor=none;" vertex="1" parent="1">
          <mxGeometry x="690.23" y="90" width="100" height="40" as="geometry" />
        </mxCell>
      </root>
    </mxGraphModel>
  </diagram>
</mxfile>
